<svg version="1.1" id="Layer_1" xmlns="http://www.w3.org/2000/svg" xmlns:xlink="http://www.w3.org/1999/xlink" x="0px" y="0px"
	 width="100%" viewBox="0 0 299 168" enable-background="new 0 0 299 168" xml:space="preserve">
<path fill="#FFFEFE" opacity="1.000000" stroke="none" 
	d="
M1.000000,168.000000 
	C1.000000,112.979103 1.000000,57.958210 1.233907,2.376206 
	C1.645210,1.543398 1.822605,1.271699 2.000000,1.000000 
	C100.687561,1.000000 199.375122,1.000000 298.612122,1.237908 
	C299.441040,1.650545 299.720520,1.825274 300.000000,2.000002 
	C300.000000,57.020893 300.000000,112.041786 299.773132,167.630325 
	C299.257965,168.392990 299.075897,168.660324 299.000000,169.000000 
	C200.312439,169.000000 101.624878,169.000000 2.371892,168.772339 
	C1.604713,168.263840 1.335890,168.082275 1.000000,168.000000 
M198.587784,136.723358 
	C200.059326,135.149323 201.530884,133.575302 203.605972,131.699982 
	C205.090561,129.926743 206.768494,128.280029 208.026047,126.358231 
	C213.315659,118.274590 217.932770,109.881004 219.548416,99.605568 
	C219.693405,98.735153 219.838379,97.864731 219.998917,96.329536 
	C219.999893,95.886154 220.000870,95.442772 220.322723,94.283195 
	C220.540024,92.185837 220.757324,90.088478 220.990280,87.194832 
	C220.985077,86.132881 220.979874,85.070930 220.992355,83.172554 
	C220.668076,81.113647 220.343811,79.054733 220.012711,76.248825 
	C220.000000,75.502106 219.987289,74.755394 219.977982,73.227531 
	C218.993729,70.155624 218.009460,67.083710 217.003265,63.267872 
	C216.333328,61.513634 215.663376,59.759396 214.944016,57.339409 
	C214.299774,56.221996 213.655518,55.104584 212.932480,53.310921 
	C211.957870,51.863510 210.983246,50.416100 209.769043,48.406887 
	C209.186691,47.602940 208.604340,46.798992 207.959030,45.403618 
	C207.636719,44.937737 207.314423,44.471855 206.742950,43.439560 
	C205.835663,42.617626 204.928375,41.795689 203.736862,40.363396 
	C201.160889,37.898182 198.584915,35.432968 195.706039,32.365360 
	C191.810089,29.902832 187.914154,27.440306 183.690018,24.376291 
	C182.462387,23.907549 181.234772,23.438807 179.674118,22.483137 
	C179.120895,22.316128 178.567673,22.149117 177.569260,21.416353 
	C170.377777,19.940302 163.186310,18.464251 155.280899,16.677965 
	C152.522263,16.781374 149.763611,16.884783 146.171539,16.985395 
	C144.784088,16.998779 143.396622,17.012163 141.334595,17.011791 
	C140.552460,17.325977 139.770309,17.640163 138.243530,17.980606 
	C137.498611,17.995644 136.753693,18.010681 135.276230,18.089510 
	C133.518295,18.737125 131.760376,19.384741 129.188889,20.002119 
	C126.959000,19.839647 124.771927,19.737940 124.357979,22.951786 
	C123.898224,22.630987 123.438461,22.310188 123.188988,21.392557 
	C121.489021,17.062492 117.767464,19.705801 114.072342,19.007862 
	C108.925850,18.996946 103.773804,18.852854 98.636665,19.066662 
	C97.315430,19.121651 96.041107,20.303797 94.745232,20.968138 
	C94.968956,21.387096 95.192688,21.806053 95.416412,22.225010 
	C98.927094,22.091009 102.551231,19.887487 105.896225,22.775610 
	C109.785011,18.798473 112.744705,22.702101 116.543343,23.951708 
	C116.719353,23.957535 116.895363,23.963360 117.017288,24.636282 
	C117.009270,25.082380 117.001251,25.528477 116.289520,26.060335 
	C97.199829,38.247894 84.803009,54.729527 82.391762,78.585258 
	C82.585159,83.393539 82.778564,88.201828 82.980980,93.841408 
	C83.001495,95.227821 83.022003,96.614243 83.060265,98.593231 
	C83.363388,99.065849 83.666519,99.538460 83.984955,100.829979 
	C84.204399,102.285423 84.209366,103.814148 84.677620,105.184578 
	C88.064957,115.098335 92.439751,124.467583 100.286362,132.584274 
	C101.858368,134.052658 103.430374,135.521057 105.376991,137.536697 
	C106.653465,138.593658 107.896721,139.694016 109.211823,140.700500 
	C117.482559,147.030258 126.430717,151.847855 137.329010,153.512955 
	C137.886795,153.661194 138.444580,153.809418 139.797241,153.986374 
	C140.856781,153.996552 141.916336,154.006744 143.527328,154.580780 
	C145.685425,154.707153 147.843536,154.833542 150.750565,154.985977 
	C151.499771,154.977280 152.248993,154.968567 153.834869,154.981201 
	C155.897949,154.659653 157.961029,154.338120 160.818192,154.011353 
	C161.877945,153.993454 162.937683,153.975555 164.590775,153.939941 
	C165.064224,153.636719 165.537674,153.333511 166.757843,153.015381 
	C167.504578,152.995834 168.251312,152.976288 169.746490,152.891891 
	C172.188034,152.228088 174.629562,151.564285 177.975967,150.979019 
	C181.673004,150.949051 185.370056,150.919083 189.994019,150.926315 
	C204.876724,150.971710 204.876724,150.971710 206.685684,148.820450 
	C201.277740,148.535004 196.009857,148.202454 190.736725,148.031204 
	C189.838715,148.002060 188.918289,148.664017 187.296158,149.020935 
	C185.891434,148.681183 184.486694,148.341446 183.556946,147.630249 
	C184.375748,146.769562 185.194550,145.908890 186.745163,145.008209 
	C190.497208,142.339630 194.249252,139.671036 198.587784,136.723358 
M239.056473,49.500000 
	C239.056473,63.955341 239.056473,78.410683 239.056473,92.866020 
	C239.476105,92.847420 239.895737,92.828812 240.315369,92.810211 
	C240.315369,68.752388 240.315369,44.694565 240.315369,20.636744 
	C239.895767,20.639938 239.476166,20.643135 239.056564,20.646330 
	C239.056564,29.930887 239.056564,39.215443 239.056473,49.500000 
M61.986275,100.500168 
	C61.986275,117.357552 61.986275,134.214935 61.986275,151.072327 
	C62.229668,151.068527 62.473061,151.064743 62.716454,151.060944 
	C62.716454,127.253891 62.716454,103.446831 62.716454,79.639771 
	C62.473061,79.637497 62.229664,79.635223 61.986271,79.632950 
	C61.986271,86.255402 61.986271,92.877861 61.986275,100.500168 
M231.106110,69.498932 
	C231.106110,55.279503 231.106110,41.060078 231.106110,26.840649 
	C230.839218,26.845779 230.572342,26.850910 230.305450,26.856039 
	C230.305450,47.027027 230.305450,67.198013 230.305450,87.368996 
	C230.572372,87.372818 230.839279,87.376640 231.106201,87.380455 
	C231.106201,81.752998 231.106201,76.125534 231.106110,69.498932 
M52.826149,132.450851 
	C52.826149,135.727676 52.826149,139.004501 52.826149,142.281326 
	C53.101955,142.276520 53.377758,142.271713 53.653564,142.266922 
	C53.653564,122.750984 53.653564,103.235046 53.653564,83.719109 
	C53.377670,83.717911 53.101772,83.716705 52.825878,83.715508 
	C52.825878,99.632080 52.825878,115.548660 52.826149,132.450851 
M71.009758,89.743484 
	C71.009758,106.224419 71.009758,122.705345 71.009758,139.186279 
	C71.272972,139.182556 71.536179,139.178833 71.799393,139.175110 
	C71.799393,120.989922 71.799393,102.804733 71.799393,84.619545 
	C71.536194,84.618118 71.273003,84.616692 71.009804,84.615265 
	C71.009804,86.016167 71.009804,87.417061 71.009758,89.743484 
M248.984863,54.500015 
	C248.984863,64.763092 248.984863,75.026161 248.984863,85.289238 
	C249.215240,85.284042 249.445602,85.278839 249.675980,85.273643 
	C249.675980,67.064499 249.675980,48.855362 249.675980,30.646219 
	C249.445602,30.645878 249.215240,30.645536 248.984863,30.645195 
	C248.984863,38.263477 248.984863,45.881756 248.984863,54.500015 
z"/>
<path fill="#E5E5E5" opacity="1.000000" stroke="none" 
	d="
M1.000000,168.500000 
	C1.335890,168.082275 1.604713,168.263840 1.903234,168.772339 
	C1.666667,169.000000 1.333333,169.000000 1.000000,168.500000 
z"/>
<path fill="#E5E5E5" opacity="1.000000" stroke="none" 
	d="
M299.500000,169.000000 
	C299.075897,168.660324 299.257965,168.392990 299.773132,168.098984 
	C300.000000,168.333328 300.000000,168.666672 299.500000,169.000000 
z"/>
<path fill="#D7D7D7" opacity="1.000000" stroke="none" 
	d="
M300.000000,1.500002 
	C299.720520,1.825274 299.441040,1.650545 299.080780,1.237908 
	C299.333344,1.000000 299.666656,1.000000 300.000000,1.500002 
z"/>
<path fill="#D7D7D7" opacity="1.000000" stroke="none" 
	d="
M1.500000,1.000000 
	C1.822605,1.271699 1.645210,1.543398 1.233907,1.907548 
	C1.000000,1.666667 1.000000,1.333333 1.500000,1.000000 
z"/>
<path fill="#FFF1DF" opacity="1.000000" stroke="none" 
	d="
M213.011261,53.987175 
	C213.655518,55.104584 214.299774,56.221996 214.718567,57.888046 
	C215.337158,60.295052 216.181183,62.153423 217.025208,64.011795 
	C218.009460,67.083710 218.993729,70.155624 219.644287,73.666557 
	C219.546906,75.069000 219.783234,76.032410 220.019547,76.995827 
	C220.343811,79.054733 220.668076,81.113647 220.640045,83.649872 
	C218.348160,85.800659 218.223999,87.151413 220.974609,87.991119 
	C220.757324,90.088478 220.540024,92.185837 219.863754,94.679527 
	C219.082733,95.480713 218.760681,95.885567 218.438614,96.290413 
	C218.953537,96.525047 219.468445,96.759682 219.983368,96.994316 
	C219.838379,97.864731 219.693405,98.735153 219.077057,99.574745 
	C217.833801,100.547745 216.816147,101.446136 216.332397,102.573601 
	C214.208191,107.524239 212.565735,112.712311 210.080429,117.464882 
	C208.750961,120.007202 206.065414,121.840378 203.861511,123.884293 
	C203.731171,123.774986 203.470184,123.556335 203.649857,123.266220 
	C213.960938,107.785728 218.430969,91.244438 214.554153,73.172768 
	C207.420929,39.921501 179.036209,19.176867 144.953461,22.006380 
	C136.140137,22.738052 127.593323,24.659193 120.237511,29.949718 
	C115.119232,33.630955 110.170998,37.548626 105.129379,40.988586 
	C107.676498,37.586803 110.275803,34.585602 112.792313,31.516518 
	C114.261032,29.725300 115.597351,27.825516 116.993233,25.974575 
	C117.001251,25.528477 117.009270,25.082380 117.302406,24.306738 
	C117.760185,23.976786 117.932838,23.976377 118.411606,23.991301 
	C119.485519,23.334238 120.253319,22.661842 121.347504,21.993675 
	C122.108826,21.995068 122.543762,21.992229 122.978699,21.989389 
	C123.438461,22.310188 123.898224,22.630987 125.010010,22.973198 
	C127.107613,22.330225 128.553192,21.665838 130.020752,21.274687 
	C130.283981,21.909067 130.525238,22.270212 130.766479,22.631359 
	C130.950333,22.484325 131.134171,22.337296 131.318024,22.190266 
	C130.879089,21.793159 130.440155,21.396057 130.000381,20.757301 
	C129.999542,20.515652 130.002441,20.032356 130.002441,20.032356 
	C131.760376,19.384741 133.518295,18.737125 135.691223,18.390179 
	C137.623245,20.622427 138.536697,20.192228 138.988174,17.954350 
	C139.770309,17.640163 140.552460,17.325977 141.737885,17.376373 
	C144.067200,19.459114 145.824677,20.088291 147.004974,16.988192 
	C149.763611,16.884783 152.522263,16.781374 155.723114,17.220640 
	C156.655334,18.145821 157.095764,18.757088 157.642929,18.875603 
	C163.400269,20.122643 169.165344,21.340309 174.953552,22.432169 
	C175.911469,22.612864 176.991074,22.148413 178.014450,21.982105 
	C178.567673,22.149117 179.120895,22.316128 179.873077,23.074684 
	C181.387421,24.103411 182.702820,24.540594 184.018204,24.977779 
	C187.914154,27.440306 191.810089,29.902832 195.857941,33.035542 
	C197.594315,37.325386 199.099838,41.032070 204.021072,40.973755 
	C204.928375,41.795689 205.835663,42.617626 206.639786,43.895084 
	C207.031738,44.898754 207.526871,45.446899 208.021988,45.995045 
	C208.604340,46.798992 209.186691,47.602940 209.885986,49.070698 
	C210.372452,53.864273 210.550293,54.115673 213.011261,53.987175 
z"/>
<path fill="#FFEED7" opacity="1.000000" stroke="none" 
	d="
M166.011124,153.030289 
	C165.537674,153.333511 165.064224,153.636719 164.227600,153.600372 
	C162.604477,152.901108 161.344498,152.541428 160.084534,152.181763 
	C160.064407,152.793365 160.044266,153.404984 160.024109,154.016586 
	C157.961029,154.338120 155.897949,154.659653 153.365250,154.641968 
	C151.930969,154.521805 150.966293,154.740860 150.001633,154.959915 
	C147.843536,154.833542 145.685425,154.707153 143.492462,154.084991 
	C141.726395,150.735626 140.280777,151.335709 139.002365,153.957642 
	C138.444580,153.809418 137.886795,153.661194 137.108185,152.914490 
	C135.553192,151.490295 134.309891,150.425751 132.869995,149.877899 
	C124.031761,146.515106 115.197884,143.214783 108.406601,136.146210 
	C108.002357,135.725464 106.170120,136.676651 105.002380,136.989441 
	C103.430374,135.521057 101.858368,134.052658 100.487625,132.238647 
	C100.493431,130.463760 100.812241,128.588577 100.020927,127.675972 
	C93.850357,120.559647 89.952774,112.285179 86.868202,103.505363 
	C86.397789,102.166420 84.960007,101.167343 83.969650,100.011070 
	C83.666519,99.538460 83.363388,99.065849 83.414581,98.288467 
	C88.159233,95.579811 85.404121,94.320831 82.971962,93.010109 
	C82.778564,88.201828 82.585159,83.393539 83.055908,78.227829 
	C84.474579,76.501442 85.513397,75.212524 85.925964,73.747284 
	C86.858490,70.435387 86.954727,66.797707 88.346275,63.725121 
	C90.846397,58.204784 94.606590,53.217472 96.773094,47.596146 
	C98.377914,43.432163 100.644272,41.837925 104.601387,42.285233 
	C86.483307,63.781429 82.269630,87.605499 94.139862,112.615234 
	C105.887711,137.367142 126.639565,149.717178 154.337173,149.002213 
	C160.912277,148.832458 167.446838,147.092377 174.187729,146.317108 
	C175.576523,146.708817 176.777634,146.858032 178.225372,147.002045 
	C178.472000,146.996826 178.965210,146.985123 178.923523,147.311005 
	C178.278275,148.724762 177.674698,149.812622 177.071106,150.900482 
	C174.629562,151.564285 172.188034,152.228088 169.320068,152.594406 
	C167.932800,152.541382 166.971954,152.785828 166.011124,153.030289 
M173.944458,148.851791 
	C173.787842,148.589813 173.681900,148.191879 173.458679,148.108673 
	C173.279053,148.041763 172.957535,148.355545 172.698990,148.500397 
	C172.958160,148.645966 173.217346,148.791519 173.944458,148.851791 
z"/>
<path fill="#FFEED8" opacity="1.000000" stroke="none" 
	d="
M104.728775,41.992256 
	C100.644272,41.837925 98.377914,43.432163 96.773094,47.596146 
	C94.606590,53.217472 90.846397,58.204784 88.346275,63.725121 
	C86.954727,66.797707 86.858490,70.435387 85.925964,73.747284 
	C85.513397,75.212524 84.474579,76.501442 83.346008,77.930222 
	C84.803009,54.729527 97.199829,38.247894 116.641373,26.017456 
	C115.597351,27.825516 114.261032,29.725300 112.792313,31.516518 
	C110.275803,34.585602 107.676498,37.586803 105.062660,41.170845 
	C105.013367,41.725185 104.728775,41.992256 104.728775,41.992256 
z"/>
<path fill="#FBBF9E" opacity="1.000000" stroke="none" 
	d="
M239.056519,49.000000 
	C239.056564,39.215443 239.056564,29.930887 239.056564,20.646330 
	C239.476166,20.643135 239.895767,20.639938 240.315369,20.636744 
	C240.315369,44.694565 240.315369,68.752388 240.315369,92.810211 
	C239.895737,92.828812 239.476105,92.847420 239.056473,92.866020 
	C239.056473,78.410683 239.056473,63.955341 239.056519,49.000000 
z"/>
<path fill="#FFEED7" opacity="1.000000" stroke="none" 
	d="
M203.991852,123.993591 
	C206.065414,121.840378 208.750961,120.007202 210.080429,117.464882 
	C212.565735,112.712311 214.208191,107.524239 216.332397,102.573601 
	C216.816147,101.446136 217.833801,100.547745 218.818924,99.788635 
	C217.932770,109.881004 213.315659,118.274590 208.026047,126.358231 
	C206.768494,128.280029 205.090561,129.926743 202.961517,131.796753 
	C202.268997,130.712799 201.969681,129.472015 202.234085,128.365967 
	C202.595306,126.854790 203.385544,125.446175 203.991852,123.993591 
z"/>
<path fill="#FFEED8" opacity="1.000000" stroke="none" 
	d="
M83.977303,100.420525 
	C84.960007,101.167343 86.397789,102.166420 86.868202,103.505363 
	C89.952774,112.285179 93.850357,120.559647 100.020927,127.675972 
	C100.812241,128.588577 100.493431,130.463760 100.349716,131.945251 
	C92.439751,124.467583 88.064957,115.098335 84.677620,105.184578 
	C84.209366,103.814148 84.204399,102.285423 83.977303,100.420525 
z"/>
<path fill="#FFEED8" opacity="1.000000" stroke="none" 
	d="
M105.189682,137.263062 
	C106.170120,136.676651 108.002357,135.725464 108.406601,136.146210 
	C115.197884,143.214783 124.031761,146.515106 132.869995,149.877899 
	C134.309891,150.425751 135.553192,151.490295 136.938171,152.673157 
	C126.430717,151.847855 117.482559,147.030258 109.211823,140.700500 
	C107.896721,139.694016 106.653465,138.593658 105.189682,137.263062 
z"/>
<path fill="#F47A01" opacity="1.000000" stroke="none" 
	d="
M61.986275,100.000244 
	C61.986271,92.877861 61.986271,86.255402 61.986271,79.632950 
	C62.229664,79.635223 62.473061,79.637497 62.716454,79.639771 
	C62.716454,103.446831 62.716454,127.253891 62.716454,151.060944 
	C62.473061,151.064743 62.229668,151.068527 61.986275,151.072327 
	C61.986275,134.214935 61.986275,117.357552 61.986275,100.000244 
z"/>
<path fill="#FFF1DF" opacity="1.000000" stroke="none" 
	d="
M178.965210,146.985123 
	C178.965210,146.985123 178.472000,146.996826 177.929718,146.871552 
	C176.575256,146.494614 175.763077,146.242935 175.093338,145.662033 
	C176.674652,144.966202 178.139862,144.676575 179.540375,144.197723 
	C180.161224,143.985474 180.651245,143.390610 181.379028,142.860107 
	C181.772812,142.561142 181.924881,142.329834 182.238342,141.806335 
	C185.609344,139.593124 188.755600,137.630447 191.925064,136.056015 
	C191.163635,137.701965 190.428421,138.994080 189.582321,140.208969 
	C188.437256,141.853104 187.207047,143.437943 186.013367,145.048218 
	C185.194550,145.908890 184.375748,146.769562 182.957703,147.802322 
	C181.227371,147.644638 180.096298,147.314880 178.965210,146.985123 
z"/>
<path fill="#F8934B" opacity="1.000000" stroke="none" 
	d="
M231.106155,69.998505 
	C231.106201,76.125534 231.106201,81.752998 231.106201,87.380455 
	C230.839279,87.376640 230.572372,87.372818 230.305450,87.368996 
	C230.305450,67.198013 230.305450,47.027027 230.305450,26.856039 
	C230.572342,26.850910 230.839218,26.845779 231.106110,26.840649 
	C231.106110,41.060078 231.106110,55.279503 231.106155,69.998505 
z"/>
<path fill="#F8A265" opacity="1.000000" stroke="none" 
	d="
M52.826012,131.958038 
	C52.825878,115.548660 52.825878,99.632080 52.825878,83.715508 
	C53.101772,83.716705 53.377670,83.717911 53.653564,83.719109 
	C53.653564,103.235046 53.653564,122.750984 53.653564,142.266922 
	C53.377758,142.271713 53.101955,142.276520 52.826149,142.281326 
	C52.826149,139.004501 52.826149,135.727676 52.826012,131.958038 
z"/>
<path fill="#FFF1DF" opacity="1.000000" stroke="none" 
	d="
M116.015297,23.968588 
	C112.744705,22.702101 109.785011,18.798473 105.896225,22.775610 
	C102.551231,19.887487 98.927094,22.091009 95.416412,22.225010 
	C95.192688,21.806053 94.968956,21.387096 94.745232,20.968138 
	C96.041107,20.303797 97.315430,19.121651 98.636665,19.066662 
	C103.773804,18.852854 108.925850,18.996946 114.529366,19.273106 
	C114.979187,19.710787 114.971977,19.883224 114.795517,20.143652 
	C114.782600,20.489655 114.938919,20.747669 115.342819,21.216370 
	C115.732033,22.274233 115.873665,23.121410 116.015297,23.968588 
z"/>
<path fill="#F68523" opacity="1.000000" stroke="none" 
	d="
M71.009781,89.280724 
	C71.009804,87.417061 71.009804,86.016167 71.009804,84.615265 
	C71.273003,84.616692 71.536194,84.618118 71.799393,84.619545 
	C71.799393,102.804733 71.799393,120.989922 71.799393,139.175110 
	C71.536179,139.178833 71.272972,139.182556 71.009758,139.186279 
	C71.009758,122.705345 71.009758,106.224419 71.009781,89.280724 
z"/>
<path fill="#F47A01" opacity="1.000000" stroke="none" 
	d="
M248.984863,54.000027 
	C248.984863,45.881756 248.984863,38.263477 248.984863,30.645195 
	C249.215240,30.645536 249.445602,30.645878 249.675980,30.646219 
	C249.675980,48.855362 249.675980,67.064499 249.675980,85.273643 
	C249.445602,85.278839 249.215240,85.284042 248.984863,85.289238 
	C248.984863,75.026161 248.984863,64.763092 248.984863,54.000027 
z"/>
<path fill="#FCC175" opacity="1.000000" stroke="none" 
	d="
M188.008209,149.006683 
	C188.918289,148.664017 189.838715,148.002060 190.736725,148.031204 
	C196.009857,148.202454 201.277740,148.535004 206.685684,148.820450 
	C204.876724,150.971710 204.876724,150.971710 189.389099,150.676758 
	C188.525528,149.953705 188.266876,149.480194 188.008209,149.006683 
z"/>
<path fill="#FFEED7" opacity="1.000000" stroke="none" 
	d="
M186.379272,145.028214 
	C187.207047,143.437943 188.437256,141.853104 189.582321,140.208969 
	C190.428421,138.994080 191.163635,137.701965 192.060715,135.825745 
	C192.751389,134.796631 193.329620,134.386032 194.232529,134.108139 
	C195.705231,135.161392 196.853256,136.081909 198.001282,137.002441 
	C194.249252,139.671036 190.497208,142.339630 186.379272,145.028214 
z"/>
<path fill="#FFF1DF" opacity="1.000000" stroke="none" 
	d="
M198.294525,136.862900 
	C196.853256,136.081909 195.705231,135.161392 194.401001,133.818146 
	C197.319916,130.115738 200.395050,126.836037 203.470184,123.556335 
	C203.470184,123.556335 203.731171,123.774986 203.861511,123.884293 
	C203.385544,125.446175 202.595306,126.854790 202.234085,128.365967 
	C201.969681,129.472015 202.268997,130.712799 202.659744,131.947403 
	C201.530884,133.575302 200.059326,135.149323 198.294525,136.862900 
z"/>
<path fill="#FFEED7" opacity="1.000000" stroke="none" 
	d="
M177.791855,21.699228 
	C176.991074,22.148413 175.911469,22.612864 174.953552,22.432169 
	C169.165344,21.340309 163.400269,20.122643 157.642929,18.875603 
	C157.095764,18.757088 156.655334,18.145821 156.080078,17.375757 
	C163.186310,18.464251 170.377777,19.940302 177.791855,21.699228 
z"/>
<path fill="#FFEED7" opacity="1.000000" stroke="none" 
	d="
M203.878967,40.668579 
	C199.099838,41.032070 197.594315,37.325386 196.009399,33.336739 
	C198.584915,35.432968 201.160889,37.898182 203.878967,40.668579 
z"/>
<path fill="#FEEAD0" opacity="1.000000" stroke="none" 
	d="
M116.279320,23.960148 
	C115.873665,23.121410 115.732033,22.274233 115.300980,20.979980 
	C115.011566,20.532906 114.964760,20.055664 114.964760,20.055664 
	C114.971977,19.883224 114.979187,19.710787 114.998474,19.279984 
	C117.767464,19.705801 121.489021,17.062492 123.083847,21.690975 
	C122.543762,21.992229 122.108826,21.995068 121.177490,21.806343 
	C119.822563,22.401844 118.964027,23.188906 118.105492,23.975967 
	C117.932838,23.976377 117.760185,23.976786 117.329445,23.973190 
	C116.895363,23.963360 116.719353,23.957535 116.279320,23.960148 
z"/>
<path fill="#FEDFB9" opacity="1.000000" stroke="none" 
	d="
M187.652191,149.013809 
	C188.266876,149.480194 188.525528,149.953705 188.925644,150.658173 
	C185.370056,150.919083 181.673004,150.949051 177.523529,150.939758 
	C177.674698,149.812622 178.278275,148.724762 178.923523,147.311005 
	C180.096298,147.314880 181.227371,147.644638 182.720215,147.988052 
	C184.486694,148.341446 185.891434,148.681183 187.652191,149.013809 
z"/>
<path fill="#FFEED8" opacity="1.000000" stroke="none" 
	d="
M82.976471,93.425758 
	C85.404121,94.320831 88.159233,95.579811 83.405701,97.992188 
	C83.022003,96.614243 83.001495,95.227821 82.976471,93.425758 
z"/>
<path fill="#FEEAD0" opacity="1.000000" stroke="none" 
	d="
M129.595673,20.017239 
	C130.002441,20.032356 129.999542,20.515652 129.999771,20.757826 
	C130.000000,21.000000 129.998779,21.001450 129.998779,21.001450 
	C128.553192,21.665838 127.107613,22.330225 125.304993,22.992393 
	C124.771927,19.737940 126.959000,19.839647 129.595673,20.017239 
z"/>
<path fill="#FFEED7" opacity="1.000000" stroke="none" 
	d="
M212.971863,53.649048 
	C210.550293,54.115673 210.372452,53.864273 210.005798,49.351601 
	C210.983246,50.416100 211.957870,51.863510 212.971863,53.649048 
z"/>
<path fill="#FFEED7" opacity="1.000000" stroke="none" 
	d="
M217.014236,63.639832 
	C216.181183,62.153423 215.337158,60.295052 214.743286,58.220921 
	C215.663376,59.759396 216.333328,61.513634 217.014236,63.639832 
z"/>
<path fill="#FFEED7" opacity="1.000000" stroke="none" 
	d="
M183.854111,24.677034 
	C182.702820,24.540594 181.387421,24.103411 180.039581,23.318146 
	C181.234772,23.438807 182.462387,23.907549 183.854111,24.677034 
z"/>
<path fill="#FFEED8" opacity="1.000000" stroke="none" 
	d="
M160.421158,154.013977 
	C160.044266,153.404984 160.064407,152.793365 160.084534,152.181763 
	C161.344498,152.541428 162.604477,152.901108 163.930939,153.609222 
	C162.937683,153.975555 161.877945,153.993454 160.421158,154.013977 
z"/>
<path fill="#FFEED8" opacity="1.000000" stroke="none" 
	d="
M139.399811,153.972015 
	C140.280777,151.335709 141.726395,150.735626 143.216736,153.803070 
	C141.916336,154.006744 140.856781,153.996552 139.399811,153.972015 
z"/>
<path fill="#FFEED7" opacity="1.000000" stroke="none" 
	d="
M146.588257,16.986794 
	C145.824677,20.088291 144.067200,19.459114 142.075180,17.383251 
	C143.396622,17.012163 144.784088,16.998779 146.588257,16.986794 
z"/>
<path fill="#FFEED7" opacity="1.000000" stroke="none" 
	d="
M220.982452,87.592972 
	C218.223999,87.151413 218.348160,85.800659 220.631195,84.068085 
	C220.979874,85.070930 220.985077,86.132881 220.982452,87.592972 
z"/>
<path fill="#FFEED7" opacity="1.000000" stroke="none" 
	d="
M220.016129,76.622330 
	C219.783234,76.032410 219.546906,75.069000 219.642578,74.057129 
	C219.987289,74.755394 220.000000,75.502106 220.016129,76.622330 
z"/>
<path fill="#FFEED7" opacity="1.000000" stroke="none" 
	d="
M138.615845,17.967476 
	C138.536697,20.192228 137.623245,20.622427 136.057495,18.358284 
	C136.753693,18.010681 137.498611,17.995644 138.615845,17.967476 
z"/>
<path fill="#FFEED8" opacity="1.000000" stroke="none" 
	d="
M166.384491,153.022827 
	C166.971954,152.785828 167.932800,152.541382 168.945831,152.626831 
	C168.251312,152.976288 167.504578,152.995834 166.384491,153.022827 
z"/>
<path fill="#FFEED8" opacity="1.000000" stroke="none" 
	d="
M150.376099,154.972946 
	C150.966293,154.740860 151.930969,154.521805 152.946915,154.631287 
	C152.248993,154.968567 151.499771,154.977280 150.376099,154.972946 
z"/>
<path fill="#FFEED7" opacity="1.000000" stroke="none" 
	d="
M207.990509,45.699333 
	C207.526871,45.446899 207.031738,44.898754 206.764374,44.178291 
	C207.314423,44.471855 207.636719,44.937737 207.990509,45.699333 
z"/>
<path fill="#FFEED7" opacity="1.000000" stroke="none" 
	d="
M219.991150,96.661926 
	C219.468445,96.759682 218.953537,96.525047 218.438614,96.290413 
	C218.760681,95.885567 219.082733,95.480713 219.703308,95.037628 
	C220.000870,95.442772 219.999893,95.886154 219.991150,96.661926 
z"/>
<path fill="#FBAD43" opacity="1.000000" stroke="none" 
	d="
M203.649857,123.266220 
	C200.395050,126.836037 197.319916,130.115738 194.076324,133.685425 
	C193.329620,134.386032 192.751389,134.796631 192.037506,135.437515 
	C188.755600,137.630447 185.609344,139.593124 181.988434,141.847809 
	C181.409393,142.416351 181.305023,142.692886 181.200653,142.969421 
	C180.651245,143.390610 180.161224,143.985474 179.540375,144.197723 
	C178.139862,144.676575 176.674652,144.966202 174.855408,145.679779 
	C174.475037,146.026718 174.000046,146.074631 174.000046,146.074631 
	C167.446838,147.092377 160.912277,148.832458 154.337173,149.002213 
	C126.639565,149.717178 105.887711,137.367142 94.139862,112.615234 
	C82.269630,87.605499 86.483307,63.781429 104.601387,42.285233 
	C104.728775,41.992256 105.013367,41.725185 105.080078,41.542931 
	C110.170998,37.548626 115.119232,33.630955 120.237511,29.949718 
	C127.593323,24.659193 136.140137,22.738052 144.953461,22.006380 
	C179.036209,19.176867 207.420929,39.921501 214.554153,73.172768 
	C218.430969,91.244438 213.960938,107.785728 203.649857,123.266220 
M189.600784,133.715179 
	C191.733170,131.809509 193.865555,129.903839 196.594330,127.688316 
	C209.295013,114.068970 214.979996,97.836037 212.775421,79.478462 
	C211.856415,71.825935 208.346649,64.484535 205.933563,56.302120 
	C203.329422,52.858566 200.725281,49.415012 197.963776,45.307884 
	C193.716431,39.886677 189.048325,35.001526 181.795197,32.331928 
	C180.982803,31.778654 180.218399,31.132103 179.350952,30.685904 
	C162.833511,22.189631 146.016266,21.863148 128.220276,29.027462 
	C119.259224,32.204769 111.883217,37.595379 105.344803,45.291836 
	C102.893715,48.857433 100.442627,52.423027 97.439499,56.411453 
	C90.794060,69.148361 88.448914,82.645805 91.195175,96.740486 
	C93.545128,108.801277 98.338982,119.769394 108.279221,128.617767 
	C110.851639,130.750214 113.424057,132.882660 116.309074,135.625000 
	C120.539383,137.750000 124.769691,139.875000 129.505066,142.576874 
	C130.917587,143.034790 132.326904,143.876129 133.743179,143.888031 
	C142.536179,143.961990 151.331039,143.783173 160.124710,143.820724 
	C167.018127,143.850159 173.913635,144.086151 180.630737,139.724319 
	C183.421967,137.820007 186.213196,135.915695 189.600784,133.715179 
z"/>
<path fill="#FFFEFE" opacity="1.000000" stroke="none" 
	d="
M118.411606,23.991299 
	C118.964027,23.188906 119.822563,22.401844 120.851105,21.802114 
	C120.253319,22.661842 119.485519,23.334238 118.411606,23.991299 
z"/>
<path fill="#FEEAD0" opacity="1.000000" stroke="none" 
	d="
M130.000610,20.999477 
	C130.440155,21.396057 130.879089,21.793159 131.318024,22.190266 
	C131.134171,22.337296 130.950333,22.484325 130.766479,22.631359 
	C130.525238,22.270212 130.283981,21.909067 130.020752,21.274685 
	C129.998779,21.001450 130.000000,21.000000 130.000610,20.999477 
z"/>
<path fill="#FEDFB9" opacity="1.000000" stroke="none" 
	d="
M174.187729,146.317108 
	C174.000046,146.074631 174.475037,146.026718 174.712982,146.008972 
	C175.763077,146.242935 176.575256,146.494614 177.683075,146.876770 
	C176.777634,146.858032 175.576523,146.708817 174.187729,146.317108 
z"/>
<path fill="#FEDFB9" opacity="1.000000" stroke="none" 
	d="
M173.710480,148.894440 
	C173.217346,148.791519 172.958160,148.645966 172.698990,148.500397 
	C172.957535,148.355545 173.279053,148.041763 173.458679,148.108673 
	C173.681900,148.191879 173.787842,148.589813 173.710480,148.894440 
z"/>
<path fill="#FFEED7" opacity="1.000000" stroke="none" 
	d="
M181.379028,142.860107 
	C181.305023,142.692886 181.409393,142.416351 181.763672,142.098343 
	C181.924881,142.329834 181.772812,142.561142 181.379028,142.860107 
z"/>
<path fill="#FFFEFE" opacity="1.000000" stroke="none" 
	d="
M114.795517,20.143652 
	C114.964760,20.055664 115.011566,20.532906 115.053406,20.769295 
	C114.938919,20.747669 114.782600,20.489655 114.795517,20.143652 
z"/>
<path fill="#F68523" opacity="1.000000" stroke="none" 
	d="
M107.978851,128.025330 
	C98.338982,119.769394 93.545128,108.801277 91.195175,96.740486 
	C88.448914,82.645805 90.794060,69.148361 97.987640,56.490185 
	C100.422699,56.733833 102.309616,56.898750 104.110626,57.419380 
	C101.677505,64.919174 98.237366,71.908348 97.198410,79.237877 
	C94.608948,97.505905 101.281456,112.954483 113.777840,126.250633 
	C111.689987,127.025017 109.834419,127.525177 107.978851,128.025330 
z"/>
<path fill="#F68421" opacity="1.000000" stroke="none" 
	d="
M206.014908,57.001671 
	C208.346649,64.484535 211.856415,71.825935 212.775421,79.478462 
	C214.979996,97.836037 209.295013,114.068970 195.889160,127.792023 
	C192.987015,127.602692 190.790054,127.309647 188.779999,126.713493 
	C192.958054,121.134727 197.724411,116.271957 200.795364,110.506180 
	C210.104568,93.027908 208.693146,75.378975 200.356110,57.846420 
	C202.476242,57.462334 204.245575,57.232002 206.014908,57.001671 
z"/>
<path fill="#FE6B33" opacity="1.000000" stroke="none" 
	d="
M128.941635,28.891703 
	C146.016266,21.863148 162.833511,22.189631 179.350952,30.685904 
	C180.218399,31.132103 180.982803,31.778654 181.521118,32.654091 
	C178.466980,33.417698 175.686905,33.859142 172.523972,34.231735 
	C163.024765,30.917723 153.702133,29.420429 144.204712,30.624889 
	C144.553116,29.793026 144.731384,29.181870 144.909668,28.570713 
	C144.295013,28.433908 143.680374,28.297102 143.065720,28.160295 
	C143.042130,29.066408 143.018539,29.972521 142.687668,30.980225 
	C141.588760,31.395605 140.797134,31.709393 139.753082,31.989944 
	C139.331665,31.972181 139.162659,31.987658 138.762833,31.977718 
	C138.532028,31.952303 138.070755,31.898493 137.988434,31.765118 
	C137.798538,31.596949 137.690964,31.562159 137.583405,31.527369 
	C137.686417,31.709917 137.789444,31.892466 137.888733,32.088207 
	C137.885010,32.101398 137.892746,32.116158 137.499512,32.233002 
	C134.756088,32.949066 132.405899,33.548290 130.036835,33.762222 
	C129.659180,31.881851 129.300415,30.386776 128.941635,28.891703 
M136.590454,29.518829 
	C136.590454,29.518829 136.476440,29.588045 136.590454,29.518829 
z"/>
<path fill="#FAA83F" opacity="1.000000" stroke="none" 
	d="
M180.001724,140.005280 
	C173.913635,144.086151 167.018127,143.850159 160.124710,143.820724 
	C151.331039,143.783173 142.536179,143.961990 133.743179,143.888031 
	C132.326904,143.876129 130.917587,143.034790 129.524597,142.001801 
	C132.057526,140.880142 134.570908,140.333557 137.429489,139.690048 
	C142.130524,139.926407 146.483688,140.439011 150.843506,140.503448 
	C152.552704,140.528702 154.276764,139.549667 155.977173,139.037445 
	C155.960281,139.046875 155.937042,139.081985 156.332306,139.073517 
	C158.776596,139.170959 160.913361,139.697922 162.855942,139.293121 
	C166.631531,138.506378 170.298126,137.196671 174.053467,136.454437 
	C176.065277,137.871933 178.033508,138.938614 180.001724,140.005280 
z"/>
<path fill="#FC722D" opacity="1.000000" stroke="none" 
	d="
M128.580963,28.959583 
	C129.300415,30.386776 129.659180,31.881851 129.905304,34.077072 
	C124.197151,38.537540 118.601654,42.297863 112.745453,45.758678 
	C110.302650,45.300953 108.120544,45.142731 105.938446,44.984512 
	C111.883217,37.595379 119.259224,32.204769 128.580963,28.959583 
z"/>
<path fill="#FC722B" opacity="1.000000" stroke="none" 
	d="
M172.906830,34.300587 
	C175.686905,33.859142 178.466980,33.417698 181.713608,32.947819 
	C189.048325,35.001526 193.716431,39.886677 197.574203,45.649467 
	C195.022934,46.029259 192.861237,46.067474 190.408417,45.962543 
	C184.380478,41.979794 178.643646,38.140190 172.906830,34.300587 
z"/>
<path fill="#F9A037" opacity="1.000000" stroke="none" 
	d="
M137.084290,139.786972 
	C134.570908,140.333557 132.057526,140.880142 129.272064,141.713364 
	C124.769691,139.875000 120.539383,137.750000 116.356613,135.040207 
	C118.266098,133.659698 120.128029,132.863983 122.318848,132.210266 
	C123.243950,132.804977 123.785721,133.368576 124.445244,133.692322 
	C128.643799,135.753311 132.868317,137.761444 137.084290,139.786972 
z"/>
<path fill="#F97B27" opacity="1.000000" stroke="none" 
	d="
M105.641624,45.138176 
	C108.120544,45.142731 110.302650,45.300953 112.591187,46.051640 
	C109.863930,50.117294 107.030228,53.590481 104.196526,57.063667 
	C102.309616,56.898750 100.422699,56.733833 98.263657,56.278770 
	C100.442627,52.423027 102.893715,48.857433 105.641624,45.138176 
z"/>
<path fill="#F97B27" opacity="1.000000" stroke="none" 
	d="
M190.699524,46.105694 
	C192.861237,46.067474 195.022934,46.029259 197.652893,45.981255 
	C200.725281,49.415012 203.329422,52.858566 205.974243,56.651894 
	C204.245575,57.232002 202.476242,57.462334 200.086914,57.646576 
	C196.544464,53.768887 193.621994,49.937290 190.699524,46.105694 
z"/>
<path fill="#F99D34" opacity="1.000000" stroke="none" 
	d="
M180.316223,139.864807 
	C178.033508,138.938614 176.065277,137.871933 174.348145,136.283081 
	C176.594971,134.780701 178.590683,133.800491 181.039948,132.871262 
	C183.997147,133.285294 186.500793,133.648346 189.004440,134.011383 
	C186.213196,135.915695 183.421967,137.820007 180.316223,139.864807 
z"/>
<path fill="#F8932B" opacity="1.000000" stroke="none" 
	d="
M121.989967,132.068268 
	C120.128029,132.863983 118.266098,133.659698 116.200317,134.735260 
	C113.424057,132.882660 110.851639,130.750214 108.129036,128.321564 
	C109.834419,127.525177 111.689987,127.025017 114.088943,126.372177 
	C117.084885,128.169098 119.537422,130.118683 121.989967,132.068268 
z"/>
<path fill="#F8932B" opacity="1.000000" stroke="none" 
	d="
M189.302612,133.863281 
	C186.500793,133.648346 183.997147,133.285294 181.253021,132.593811 
	C183.539383,130.515793 186.066223,128.766190 188.593079,127.016602 
	C190.790054,127.309647 192.987015,127.602692 195.590973,127.946945 
	C193.865555,129.903839 191.733170,131.809509 189.302612,133.863281 
z"/>
<path fill="#FFFDFC" opacity="1.000000" stroke="none" 
	d="
M188.779999,126.713493 
	C186.066223,128.766190 183.539383,130.515793 180.799469,132.542831 
	C178.590683,133.800491 176.594971,134.780701 174.304565,135.932251 
	C170.298126,137.196671 166.631531,138.506378 162.855942,139.293121 
	C160.913361,139.697922 158.776596,139.170959 156.308472,138.967422 
	C155.889343,138.869812 155.721344,138.757538 155.721344,138.757538 
	C155.721344,138.757538 155.994049,139.028000 155.994049,139.028000 
	C154.276764,139.549667 152.552704,140.528702 150.843506,140.503448 
	C146.483688,140.439011 142.130524,139.926407 137.429489,139.690048 
	C132.868317,137.761444 128.643799,135.753311 124.445244,133.692322 
	C123.785721,133.368576 123.243950,132.804977 122.318848,132.210266 
	C119.537422,130.118683 117.084885,128.169098 114.321228,126.097961 
	C101.281456,112.954483 94.608948,97.505905 97.198410,79.237877 
	C98.237366,71.908348 101.677505,64.919174 104.110626,57.419380 
	C107.030228,53.590481 109.863930,50.117294 112.851898,46.351147 
	C118.601654,42.297863 124.197151,38.537540 129.924179,34.462368 
	C132.405899,33.548290 134.756088,32.949066 137.699585,32.521835 
	C138.513504,32.769672 138.734116,32.845516 138.992920,33.216232 
	C139.437683,33.846153 139.844254,34.181206 140.250854,34.516258 
	C140.169067,33.685230 140.087280,32.854202 140.005493,32.023178 
	C140.797134,31.709393 141.588760,31.395605 142.949158,31.021742 
	C143.690140,30.922976 143.862366,30.884283 144.034576,30.845592 
	C153.702133,29.420429 163.024765,30.917723 172.523972,34.231735 
	C178.643646,38.140190 184.380478,41.979794 190.408417,45.962547 
	C193.621994,49.937290 196.544464,53.768887 199.736115,57.800331 
	C208.693146,75.378975 210.104568,93.027908 200.795364,110.506180 
	C197.724411,116.271957 192.958054,121.134727 188.779999,126.713493 
M147.902374,128.668808 
	C147.804794,128.627396 147.707199,128.585983 147.609619,128.544571 
	C147.719482,128.711838 147.829346,128.879120 148.040695,129.609100 
	C148.359192,129.921768 148.677673,130.234451 148.996170,130.547119 
	C149.179916,130.335724 149.363663,130.124329 149.547409,129.912933 
	C149.048019,129.586884 148.548630,129.260834 147.902374,128.668808 
M142.902023,38.668743 
	C142.803894,38.626381 142.705780,38.584015 142.607651,38.541653 
	C142.719009,38.709492 142.830383,38.877331 143.029251,39.689053 
	C143.489456,40.520962 143.949677,41.352871 144.409897,42.184780 
	C144.712158,41.952438 145.014435,41.720100 145.316696,41.487759 
	C144.560089,40.638168 143.803482,39.788578 142.902023,38.668743 
M140.279678,130.003799 
	C138.687851,131.352722 138.687851,131.352722 141.900833,135.276154 
	C141.607117,133.521469 141.313400,131.766800 141.531967,129.567993 
	C141.531967,128.524292 141.531967,127.480598 141.531967,126.436905 
	C141.063950,126.496941 140.595932,126.556984 140.127899,126.617020 
	C140.408508,127.737480 140.689102,128.857941 140.279678,130.003799 
M134.445816,52.886539 
	C133.766037,52.636162 133.086273,52.385784 131.671432,52.100197 
	C131.086761,52.465153 130.502106,52.830109 129.472397,53.184177 
	C129.146622,53.245644 128.932983,53.434204 128.170212,53.822395 
	C127.400963,54.174988 126.631721,54.527584 125.318481,55.017166 
	C124.861267,55.347164 124.404053,55.677162 123.418457,55.942879 
	C123.266724,56.034836 123.114990,56.126793 122.265358,56.447201 
	C121.472069,58.154629 120.010597,59.854843 119.992065,61.570644 
	C119.853729,74.374863 120.001030,87.182167 119.989777,100.498146 
	C119.982368,100.669418 119.974968,100.840683 119.388016,101.601227 
	C119.263260,105.691338 118.871704,109.800262 119.158203,113.861359 
	C119.258713,115.286026 121.024719,116.593201 122.594398,118.223724 
	C123.436020,118.818047 124.277641,119.412376 125.506035,120.483429 
	C126.305367,120.546082 127.104698,120.608734 128.414078,120.907768 
	C128.590942,120.969673 128.767792,121.031578 129.175095,121.518333 
	C129.385483,121.784348 129.657944,121.945312 130.314499,122.477554 
	C130.847290,122.603752 131.380066,122.729958 132.680481,122.958900 
	C133.454178,122.992409 134.227890,123.025917 135.192352,123.373260 
	C135.462662,123.256203 135.732956,123.139145 136.770874,123.019363 
	C138.505936,123.332375 140.240982,123.645393 142.385986,124.490395 
	C143.575302,124.360954 144.764618,124.231514 146.485657,124.064102 
	C146.663345,124.064682 146.841049,124.065262 147.193954,124.373932 
	C147.456482,124.270851 147.719009,124.167770 148.856827,124.022865 
	C150.899612,124.046165 152.942398,124.069473 155.073822,124.792824 
	C156.262268,127.124802 157.450729,129.456772 158.639175,131.788757 
	C159.035202,131.582016 159.431229,131.375290 159.827255,131.168549 
	C158.988556,129.357071 158.149872,127.545593 157.312164,125.736259 
	C158.658005,125.124390 159.818497,124.596779 161.825455,124.030556 
	C166.243073,123.027985 170.660706,122.025414 175.539963,120.807709 
	C175.980148,120.554749 176.420349,120.301788 177.193604,120.383698 
	C177.496140,119.966843 177.798676,119.549988 178.580429,118.859459 
	C179.047668,118.566971 179.514893,118.274483 180.385162,118.157684 
	C180.867020,118.206726 181.348877,118.255768 182.479965,117.789619 
	C183.007294,115.770401 183.976379,113.754585 183.991989,111.731407 
	C184.115891,95.673264 184.082260,79.613632 184.019485,63.554756 
	C184.013321,61.979031 183.486130,60.405342 182.954895,58.189217 
	C178.022522,54.152744 172.614365,51.639900 165.700180,52.629894 
	C165.517151,52.411682 165.346710,52.184044 165.008362,51.441730 
	C164.672455,51.363537 164.336548,51.285339 163.270523,51.062702 
	C162.528687,51.078140 161.786850,51.093578 160.731491,50.603706 
	C159.872833,50.626484 159.014175,50.649265 157.389999,50.770832 
	C156.877686,50.741085 156.365372,50.711334 155.287369,50.234726 
	C153.282562,50.150288 151.277756,50.065853 148.896942,49.631599 
	C148.482819,49.747787 148.068710,49.863972 146.930252,49.982140 
	C145.618134,50.598598 144.306015,51.215057 142.347809,51.763042 
	C141.568008,51.447380 140.788223,51.131718 139.984390,50.110813 
	C139.561523,49.607983 139.138641,49.105152 138.715775,48.602322 
	C138.585892,49.640255 138.456009,50.678192 138.172577,51.917675 
	C138.172577,51.917675 138.022934,52.122124 137.504364,52.012676 
	C137.329117,51.990417 137.153854,51.968155 136.653351,51.511124 
	C136.102249,51.945534 135.551147,52.379948 134.445816,52.886539 
M135.030182,38.522400 
	C134.534943,37.921463 134.039703,37.320526 133.544479,36.719593 
	C133.306259,36.848957 133.068024,36.978325 132.829803,37.107689 
	C133.422028,38.243187 134.014252,39.378681 134.606491,40.514179 
	C134.872025,40.015720 135.137573,39.517258 135.030182,38.522400 
M149.522202,35.640640 
	C149.522202,34.715900 149.522202,33.791157 149.522202,32.866417 
	C149.017334,32.912956 148.512482,32.959496 148.007614,33.006035 
	C148.333252,33.781986 148.658875,34.557941 149.522202,35.640640 
M163.756714,135.641724 
	C163.081421,135.196289 162.406113,134.750854 161.730820,134.305420 
	C161.538162,134.748032 161.345505,135.190628 161.152863,135.633240 
	C162.069687,135.837631 162.986511,136.042038 163.756714,135.641724 
M153.960999,41.329185 
	C154.171844,42.113956 154.382690,42.898731 154.593521,43.683506 
	C154.892487,43.560833 155.191437,43.438160 155.490387,43.315487 
	C155.154999,42.678684 154.819595,42.041882 153.960999,41.329185 
M144.201721,131.608917 
	C144.205887,131.214417 144.210037,130.819931 144.214188,130.425415 
	C144.050476,130.423874 143.744461,130.411362 143.743607,130.422363 
	C143.713394,130.815002 143.711716,131.209824 144.201721,131.608917 
M152.576767,38.294033 
	C152.300247,38.004105 152.023743,37.714172 151.747223,37.424240 
	C151.627075,37.538857 151.506927,37.653473 151.386780,37.768097 
	C151.663956,38.058144 151.941132,38.348190 152.576767,38.294033 
M165.386368,127.201988 
	C165.784073,127.206078 166.181763,127.210167 166.579468,127.214264 
	C166.581055,127.049149 166.593643,126.740494 166.582642,126.739647 
	C166.186676,126.709312 165.788498,126.707695 165.386368,127.201988 
M152.295212,133.430206 
	C152.007095,133.704971 151.718979,133.979736 151.430862,134.254517 
	C151.544708,134.373428 151.751190,134.602051 151.759003,134.595444 
	C152.062744,134.338959 152.348343,134.060989 152.295212,133.430206 
M147.005722,45.706242 
	C146.767715,45.781754 146.529709,45.857265 146.291702,45.932774 
	C146.560013,46.197830 146.828308,46.462887 147.096619,46.727940 
	C147.170273,46.489716 147.243927,46.251492 147.005722,45.706242 
M156.612564,48.473087 
	C156.833954,48.529377 157.055359,48.585663 157.276749,48.641956 
	C157.134277,48.502537 156.991821,48.363117 156.612564,48.473087 
M168.628448,132.475128 
	C168.840454,132.529572 169.052475,132.584015 169.264481,132.638443 
	C169.128250,132.504639 168.992020,132.370834 168.628448,132.475128 
M138.387344,46.526283 
	C138.163101,46.469227 137.938873,46.412170 137.714630,46.355114 
	C137.859009,46.496342 138.003372,46.637569 138.387344,46.526283 
M136.190170,42.252113 
	C136.028214,42.370632 135.866272,42.489151 135.704315,42.607674 
	C135.929855,42.583065 136.155380,42.558456 136.190170,42.252113 
z"/>
<path fill="#FE7436" opacity="1.000000" stroke="none" 
	d="
M144.204712,30.624889 
	C143.862366,30.884283 143.690140,30.922976 143.256409,30.920151 
	C143.018539,29.972521 143.042130,29.066408 143.065720,28.160295 
	C143.680374,28.297102 144.295013,28.433908 144.909668,28.570713 
	C144.731384,29.181870 144.553116,29.793026 144.204712,30.624889 
z"/>
<path fill="#FFF8F3" opacity="1.000000" stroke="none" 
	d="
M139.753098,31.989941 
	C140.087280,32.854202 140.169067,33.685230 140.250854,34.516258 
	C139.844254,34.181206 139.437683,33.846153 139.002686,32.986603 
	C138.974274,32.462109 138.993637,32.003132 138.993637,32.003132 
	C139.162659,31.987658 139.331665,31.972181 139.753098,31.989941 
z"/>
<path fill="#FE7436" opacity="1.000000" stroke="none" 
	d="
M138.762833,31.977718 
	C138.993637,32.003132 138.974274,32.462109 138.964508,32.691734 
	C138.734116,32.845516 138.513504,32.769672 138.092819,32.404991 
	C137.892746,32.116158 137.885010,32.101398 137.936920,32.047718 
	C137.988831,31.994038 138.070755,31.898493 138.070755,31.898493 
	C138.070755,31.898493 138.532028,31.952303 138.762833,31.977718 
z"/>
<path fill="#FE7436" opacity="1.000000" stroke="none" 
	d="
M137.940643,32.034527 
	C137.789444,31.892466 137.686417,31.709917 137.583405,31.527369 
	C137.690964,31.562159 137.798538,31.596949 137.988434,31.765118 
	C138.070755,31.898493 137.988831,31.994038 137.940643,32.034527 
z"/>
<path fill="#FE7436" opacity="1.000000" stroke="none" 
	d="
M136.533447,29.553436 
	C136.476440,29.588045 136.590454,29.518829 136.533447,29.553436 
z"/>
<path fill="#ACCCFB" opacity="1.000000" stroke="none" 
	d="
M125.119255,120.006706 
	C124.277641,119.412376 123.436020,118.818047 122.216660,117.685425 
	C121.548294,114.749931 121.247002,112.353973 120.969734,109.955246 
	C120.625290,106.975349 120.300720,103.993156 119.967567,101.011955 
	C119.974968,100.840683 119.982368,100.669418 120.385529,100.207642 
	C120.857544,89.266846 120.900429,78.616104 121.046906,67.966782 
	C121.068298,66.412109 121.583710,64.864235 122.024796,63.575397 
	C123.116943,64.570251 124.054817,65.302925 125.027817,66.438110 
	C125.079361,67.838173 124.855141,68.915283 125.154099,69.819397 
	C126.410423,73.618744 123.737885,79.701462 130.986267,80.450226 
	C130.615646,81.886147 130.240570,82.974129 129.555298,84.039566 
	C128.833023,83.970535 128.420975,83.924042 127.913300,83.726990 
	C127.548141,83.680649 127.278625,83.784843 126.657028,84.009247 
	C126.042450,87.948700 125.689888,91.766502 125.628067,95.589005 
	C125.620079,96.083107 127.060135,96.748260 127.926819,97.079002 
	C129.897507,97.831047 131.928802,98.424324 133.732452,99.336014 
	C131.975906,100.421738 130.422394,101.253578 128.669189,102.085052 
	C128.469513,102.084686 128.070190,102.089302 127.863831,101.820229 
	C126.294685,101.243523 124.931900,100.935898 123.569107,100.628265 
	C123.517776,100.919731 123.466454,101.211197 123.415123,101.502655 
	C123.973404,101.702545 124.531685,101.902428 125.095703,102.513535 
	C125.401115,104.968826 125.700783,107.012901 126.000595,109.299461 
	C126.000748,109.541946 126.002632,110.026917 125.745789,110.265106 
	C126.013245,111.995720 126.107140,114.181778 127.154297,114.831551 
	C129.138016,116.062462 131.668610,116.412048 133.754868,117.369331 
	C132.006699,118.771751 130.475677,119.932610 128.944656,121.093475 
	C128.767792,121.031578 128.590942,120.969673 128.040436,120.585175 
	C126.817604,120.177292 125.968430,120.092003 125.119255,120.006706 
z"/>
<path fill="#DFE9F9" opacity="1.000000" stroke="none" 
	d="
M179.982132,117.981995 
	C179.514893,118.274483 179.047668,118.566971 178.075592,119.053909 
	C177.334015,119.515175 177.097275,119.782005 176.860550,120.048828 
	C176.420349,120.301788 175.980148,120.554749 175.282074,120.495667 
	C175.018143,118.782768 175.012115,117.381905 175.333389,115.802887 
	C180.052246,112.091209 177.185577,107.228203 177.873108,102.772865 
	C177.311920,102.256775 176.844727,102.001251 176.377533,101.745728 
	C176.273666,102.171417 176.169785,102.597107 175.874268,103.203781 
	C174.807617,103.278313 173.932617,103.171852 173.091644,102.712509 
	C173.749527,100.890945 174.373398,99.422272 175.226288,97.665741 
	C180.353043,93.743713 177.238770,89.068710 177.797699,84.343147 
	C175.370514,85.060318 173.701050,85.553612 172.056915,85.697380 
	C172.716141,83.559013 173.350037,81.770164 174.207977,79.695267 
	C177.267029,78.334259 178.399033,76.376564 178.053741,73.294563 
	C177.780060,70.851715 177.965515,68.357414 178.108047,65.614960 
	C179.169037,64.865799 180.069077,64.387642 181.325439,64.161842 
	C181.820770,75.081673 181.993668,85.748955 182.051010,96.416870 
	C182.057373,97.600800 181.088028,98.794624 181.111664,99.973022 
	C181.225449,105.647789 181.524597,111.318840 181.490265,117.019753 
	C180.809082,117.359528 180.395599,117.670761 179.982132,117.981995 
z"/>
<path fill="#D6E3F9" opacity="1.000000" stroke="none" 
	d="
M175.006088,115.981049 
	C175.012115,117.381905 175.018143,118.782768 175.051239,120.603241 
	C170.660706,122.025414 166.243073,123.027985 160.987091,124.030113 
	C158.758148,123.995102 157.367538,123.960526 156.050171,123.586914 
	C157.747910,121.807007 159.372406,120.366142 161.148682,118.605682 
	C161.502777,116.899986 161.705109,115.513901 162.355911,114.087921 
	C166.173126,113.677742 169.541901,113.307442 172.941376,113.296692 
	C173.650101,114.431183 174.328094,115.206116 175.006088,115.981049 
z"/>
<path fill="#F2AB7C" opacity="1.000000" stroke="none" 
	d="
M181.757965,116.991211 
	C181.524597,111.318840 181.225449,105.647789 181.111664,99.973022 
	C181.088028,98.794624 182.057373,97.600800 182.051010,96.416870 
	C181.993668,85.748955 181.820770,75.081673 181.364243,63.948891 
	C181.046707,63.483578 181.049088,63.050533 181.024231,63.026665 
	C180.999390,63.002792 181.051453,63.045341 181.410187,62.996838 
	C182.131607,61.687016 182.494308,60.425697 182.940399,59.078346 
	C183.023804,58.992310 183.200775,58.830711 183.200775,58.830711 
	C183.486130,60.405342 184.013321,61.979031 184.019485,63.554756 
	C184.082260,79.613632 184.115891,95.673264 183.991989,111.731407 
	C183.976379,113.754585 183.007294,115.770401 182.184586,117.714096 
	C181.845444,117.422783 181.801697,117.206993 181.757965,116.991211 
z"/>
<path fill="#ED593E" opacity="1.000000" stroke="none" 
	d="
M125.862473,54.880180 
	C126.631721,54.527584 127.400963,54.174988 128.728607,54.092743 
	C132.855988,55.579853 136.424988,56.796616 140.252869,58.122940 
	C141.005264,58.498047 141.498779,58.763588 142.152328,59.332619 
	C144.850418,60.771145 147.388474,61.906178 149.944885,63.365261 
	C149.982422,64.121635 150.001633,64.553963 150.010437,65.322357 
	C149.994888,66.105873 149.989731,66.553307 149.614410,66.993896 
	C146.832535,65.988838 144.420853,64.990616 141.788635,63.721897 
	C136.332886,60.594326 131.097687,57.737251 125.862473,54.880180 
z"/>
<path fill="#BED3F7" opacity="1.000000" stroke="none" 
	d="
M129.059875,121.305908 
	C130.475677,119.932610 132.006699,118.771751 134.160736,117.380600 
	C139.183762,117.780396 143.583801,118.410469 147.981308,119.396889 
	C146.983124,120.861954 145.987473,121.970657 144.655090,123.058319 
	C143.537598,123.344315 142.756821,123.651360 141.976044,123.958405 
	C140.240982,123.645393 138.505936,123.332375 136.297043,122.844879 
	C135.549347,122.800079 135.275467,122.929756 135.001587,123.059433 
	C134.227890,123.025917 133.454178,122.992409 132.271164,122.635208 
	C131.238724,122.208084 130.615585,122.104660 129.992462,122.001236 
	C129.657944,121.945312 129.385483,121.784348 129.059875,121.305908 
z"/>
<path fill="#CA4052" opacity="1.000000" stroke="none" 
	d="
M122.963257,56.218758 
	C123.114990,56.126793 123.266724,56.034836 123.849258,56.283421 
	C130.178375,59.422981 136.076691,62.222004 141.980682,65.423462 
	C141.948166,66.629539 141.909943,67.433167 141.538803,68.411880 
	C138.786774,68.365540 136.367661,68.144127 134.115219,67.690048 
	C134.369202,66.899162 134.651550,65.906754 134.515564,65.845665 
	C130.075394,63.851131 125.595001,61.946133 121.179489,59.721680 
	C121.813339,58.349937 122.388298,57.284348 122.963257,56.218758 
z"/>
<path fill="#FCB968" opacity="1.000000" stroke="none" 
	d="
M166.027054,52.903008 
	C172.614365,51.639900 178.022522,54.152744 183.077835,58.509964 
	C183.200775,58.830711 183.023804,58.992310 182.700165,59.240578 
	C181.916031,60.322548 181.455536,61.156246 180.675781,61.851105 
	C178.733307,60.881897 177.036697,60.167606 175.502167,59.197029 
	C172.298462,57.170712 169.180328,55.009064 166.027054,52.903008 
z"/>
<path fill="#FBAC47" opacity="1.000000" stroke="none" 
	d="
M165.863617,52.766449 
	C169.180328,55.009064 172.298462,57.170712 175.502167,59.197029 
	C177.036697,60.167606 178.733307,60.881897 180.683441,62.115356 
	C181.024048,62.694080 181.037750,62.869709 181.051453,63.045341 
	C181.051453,63.045341 180.999390,63.002792 180.633911,63.004341 
	C175.237534,60.871609 170.272522,58.552219 165.133286,56.722130 
	C163.695526,56.210144 161.452240,53.330452 159.995544,57.245201 
	C159.994125,57.490627 159.989944,57.981461 159.748169,57.980698 
	C159.506378,57.979931 159.022873,57.973015 158.969238,57.579224 
	C158.661743,55.358711 158.407883,53.531990 158.474319,51.772934 
	C159.544754,51.596733 160.294876,51.352875 161.045013,51.109016 
	C161.786850,51.093578 162.528687,51.078140 163.782562,51.328632 
	C164.548416,51.824306 164.846497,51.941776 165.188858,51.946972 
	C165.346710,52.184044 165.517151,52.411682 165.863617,52.766449 
z"/>
<path fill="#FD853A" opacity="1.000000" stroke="none" 
	d="
M141.992310,59.029129 
	C141.498779,58.763588 141.005264,58.498047 140.372681,57.827438 
	C139.496750,55.655624 138.759842,53.888874 138.022934,52.122124 
	C138.022934,52.122124 138.172577,51.917675 138.537277,51.677799 
	C139.270798,51.230637 139.639603,51.023346 140.008423,50.816055 
	C140.788223,51.131718 141.568008,51.447380 143.041107,51.849327 
	C145.115784,51.543377 146.497162,51.151142 147.914978,51.156799 
	C148.610809,54.053844 149.270203,56.552994 149.563034,59.027897 
	C147.091248,58.142784 144.986008,57.281921 142.559891,56.289837 
	C142.364059,57.234974 142.178177,58.132050 141.992310,59.029129 
z"/>
<path fill="#C6DDFF" opacity="1.000000" stroke="none" 
	d="
M144.991821,123.079361 
	C145.987473,121.970657 146.983124,120.861954 148.445953,119.378265 
	C152.941055,118.977280 156.968979,118.951286 160.996918,118.925293 
	C159.372406,120.366142 157.747910,121.807007 155.802246,123.628387 
	C155.315765,124.036865 155.150467,124.064827 154.985184,124.092781 
	C152.942398,124.069473 150.899612,124.046165 148.178604,124.029099 
	C147.500381,124.035339 147.018738,124.065834 147.018738,124.065834 
	C146.841049,124.065262 146.663345,124.064682 146.013214,123.958862 
	C145.271729,123.656548 145.088745,123.398460 144.991821,123.079361 
z"/>
<path fill="#FBA03C" opacity="1.000000" stroke="none" 
	d="
M149.929596,59.052143 
	C149.270203,56.552994 148.610809,54.053844 147.875153,50.957512 
	C147.798889,50.360332 147.654587,49.980160 147.654587,49.980160 
	C148.068710,49.863972 148.482819,49.747787 149.227402,50.125160 
	C151.656265,50.639679 153.754654,50.660633 155.853058,50.681587 
	C156.365372,50.711334 156.877686,50.741085 157.756836,50.980103 
	C158.133759,51.361340 158.143875,51.533306 158.154022,51.705273 
	C158.407883,53.531990 158.661743,55.358711 158.642029,57.447166 
	C156.936584,56.989872 155.563934,55.953705 154.050568,55.671089 
	C153.146759,55.502312 152.022324,56.514851 150.996933,57.402538 
	C151.023712,58.894394 151.050629,59.980072 151.066406,61.460258 
	C151.067520,62.908485 151.079773,63.962204 150.824188,65.009209 
	C150.377869,64.997086 150.199341,64.991684 150.020828,64.986282 
	C150.001633,64.553963 149.982422,64.121635 149.972107,62.965042 
	C149.963852,61.177898 149.946732,60.115021 149.929596,59.052143 
M150.519455,53.410046 
	C150.519455,53.410046 150.587585,53.524269 150.519455,53.410046 
z"/>
<path fill="#F47D0B" opacity="1.000000" stroke="none" 
	d="
M122.614311,56.332977 
	C122.388298,57.284348 121.813339,58.349937 121.166061,60.064453 
	C121.352669,61.579990 121.611603,62.446598 121.870529,63.313210 
	C121.583710,64.864235 121.068298,66.412109 121.046906,67.966782 
	C120.900429,78.616104 120.857544,89.266846 120.420044,99.952820 
	C120.001030,87.182167 119.853729,74.374863 119.992065,61.570644 
	C120.010597,59.854843 121.472069,58.154629 122.614311,56.332977 
z"/>
<path fill="#D94A49" opacity="1.000000" stroke="none" 
	d="
M141.975006,65.021027 
	C136.076691,62.222004 130.178375,59.422981 124.113449,56.315559 
	C124.404053,55.677162 124.861267,55.347164 125.590477,54.948669 
	C131.097687,57.737251 136.332886,60.594326 141.781555,63.979149 
	C141.988327,64.678276 141.981674,64.849648 141.975006,65.021027 
z"/>
<path fill="#FE6B33" opacity="1.000000" stroke="none" 
	d="
M137.763641,52.067398 
	C138.759842,53.888874 139.496750,55.655624 140.113815,57.717876 
	C136.424988,56.796616 132.855988,55.579853 129.059235,54.056473 
	C128.932983,53.434204 129.146622,53.245644 129.860718,53.450691 
	C130.968185,53.189941 131.687347,52.662674 132.406494,52.135406 
	C133.086273,52.385784 133.766037,52.636162 135.024612,52.896454 
	C136.061813,52.586212 136.520203,52.266056 136.978607,51.945900 
	C137.153854,51.968155 137.329117,51.990417 137.763641,52.067398 
z"/>
<path fill="#FFFDFB" opacity="1.000000" stroke="none" 
	d="
M119.677795,101.306595 
	C120.300720,103.993156 120.625290,106.975349 120.969734,109.955246 
	C121.247002,112.353973 121.548294,114.749931 121.934570,117.550568 
	C121.024719,116.593201 119.258713,115.286026 119.158203,113.861359 
	C118.871704,109.800262 119.263260,105.691338 119.677795,101.306595 
z"/>
<path fill="#FFFAF5" opacity="1.000000" stroke="none" 
	d="
M155.029510,124.442802 
	C155.150467,124.064827 155.315765,124.036865 155.729004,123.967422 
	C157.367538,123.960526 158.758148,123.995102 160.563873,124.049423 
	C159.818497,124.596779 158.658005,125.124390 157.312164,125.736259 
	C158.149872,127.545593 158.988556,129.357071 159.827255,131.168549 
	C159.431229,131.375290 159.035202,131.582016 158.639175,131.788757 
	C157.450729,129.456772 156.262268,127.124802 155.029510,124.442802 
z"/>
<path fill="#FFFDFB" opacity="1.000000" stroke="none" 
	d="
M141.019684,130.012115 
	C141.313400,131.766800 141.607117,133.521469 141.900833,135.276154 
	C138.687851,131.352722 138.687851,131.352722 140.637207,129.999939 
	C140.994736,129.996094 141.019669,130.012115 141.019684,130.012115 
z"/>
<path fill="#FFF8F3" opacity="1.000000" stroke="none" 
	d="
M155.570221,50.458157 
	C153.754654,50.660633 151.656265,50.639679 149.415405,50.300072 
	C151.277756,50.065853 153.282562,50.150288 155.570221,50.458157 
z"/>
<path fill="#FFF8F3" opacity="1.000000" stroke="none" 
	d="
M147.292419,49.981148 
	C147.654587,49.980160 147.798889,50.360332 147.838715,50.559620 
	C146.497162,51.151142 145.115784,51.543377 143.364151,51.883568 
	C144.306015,51.215057 145.618134,50.598598 147.292419,49.981148 
z"/>
<path fill="#FFFAF5" opacity="1.000000" stroke="none" 
	d="
M135.216644,38.770599 
	C135.137573,39.517258 134.872025,40.015720 134.606476,40.514175 
	C134.014252,39.378681 133.422028,38.243187 132.829803,37.107689 
	C133.068024,36.978325 133.306259,36.848957 133.544479,36.719593 
	C134.039703,37.320526 134.534943,37.921463 135.216644,38.770599 
z"/>
<path fill="#FFF8F3" opacity="1.000000" stroke="none" 
	d="
M149.253357,35.487267 
	C148.658875,34.557941 148.333252,33.781986 148.007614,33.006035 
	C148.512482,32.959496 149.017334,32.912956 149.522202,32.866417 
	C149.522202,33.791157 149.522202,34.715900 149.253357,35.487267 
z"/>
<path fill="#FFFAF5" opacity="1.000000" stroke="none" 
	d="
M163.830017,135.944092 
	C162.986511,136.042038 162.069687,135.837631 161.152863,135.633240 
	C161.345505,135.190628 161.538162,134.748032 161.730820,134.305420 
	C162.406113,134.750854 163.081421,135.196289 163.830017,135.944092 
z"/>
<path fill="#FFFDFB" opacity="1.000000" stroke="none" 
	d="
M144.655090,123.058319 
	C145.088745,123.398460 145.271729,123.656548 145.747360,123.977859 
	C144.764618,124.231514 143.575302,124.360954 142.181015,124.224396 
	C142.756821,123.651360 143.537598,123.344315 144.655090,123.058319 
z"/>
<path fill="#FFFDFB" opacity="1.000000" stroke="none" 
	d="
M140.982208,129.987244 
	C140.689102,128.857941 140.408508,127.737480 140.127899,126.617020 
	C140.595932,126.556984 141.063950,126.496941 141.531967,126.436905 
	C141.531967,127.480598 141.531967,128.524292 141.275818,129.790054 
	C141.019669,130.012115 140.994736,129.996094 140.982208,129.987244 
z"/>
<path fill="#FFF8F3" opacity="1.000000" stroke="none" 
	d="
M143.046875,38.938988 
	C143.803482,39.788578 144.560089,40.638168 145.316696,41.487759 
	C145.014435,41.720100 144.712158,41.952438 144.409897,42.184780 
	C143.949677,41.352871 143.489456,40.520962 143.013580,39.342358 
	C142.997925,38.995663 143.046875,38.938988 143.046875,38.938988 
z"/>
<path fill="#FFFAF5" opacity="1.000000" stroke="none" 
	d="
M139.996399,50.463432 
	C139.639603,51.023346 139.270798,51.230637 138.614059,51.577026 
	C138.456009,50.678192 138.585892,49.640255 138.715775,48.602322 
	C139.138641,49.105152 139.561523,49.607983 139.996399,50.463432 
z"/>
<path fill="#FFF8F3" opacity="1.000000" stroke="none" 
	d="
M158.474304,51.772934 
	C158.143875,51.533306 158.133759,51.361340 158.139587,50.930710 
	C159.014175,50.649265 159.872833,50.626484 160.888245,50.856361 
	C160.294876,51.352875 159.544754,51.596733 158.474304,51.772934 
z"/>
<path fill="#FFF8F3" opacity="1.000000" stroke="none" 
	d="
M154.222595,41.367130 
	C154.819595,42.041882 155.154999,42.678684 155.490387,43.315487 
	C155.191437,43.438160 154.892487,43.560833 154.593521,43.683506 
	C154.382690,42.898731 154.171844,42.113956 154.222595,41.367130 
z"/>
<path fill="#FFFDFB" opacity="1.000000" stroke="none" 
	d="
M132.038971,52.117802 
	C131.687347,52.662674 130.968185,53.189941 130.083237,53.456139 
	C130.502106,52.830109 131.086761,52.465153 132.038971,52.117802 
z"/>
<path fill="#FFFDFB" opacity="1.000000" stroke="none" 
	d="
M143.953888,131.606628 
	C143.711716,131.209824 143.713394,130.815002 143.743607,130.422363 
	C143.744461,130.411362 144.050476,130.423874 144.214188,130.425415 
	C144.210037,130.819931 144.205887,131.214417 143.953888,131.606628 
z"/>
<path fill="#AECCF9" opacity="1.000000" stroke="none" 
	d="
M125.312645,120.245071 
	C125.968430,120.092003 126.817604,120.177292 127.785400,120.466980 
	C127.104698,120.608734 126.305367,120.546082 125.312645,120.245071 
z"/>
<path fill="#FFF8F3" opacity="1.000000" stroke="none" 
	d="
M152.397552,38.466137 
	C151.941132,38.348190 151.663956,38.058144 151.386780,37.768093 
	C151.506927,37.653473 151.627075,37.538857 151.747223,37.424240 
	C152.023743,37.714172 152.300247,38.004105 152.397552,38.466137 
z"/>
<path fill="#FFFDFB" opacity="1.000000" stroke="none" 
	d="
M136.815979,51.728512 
	C136.520203,52.266056 136.061813,52.586212 135.301727,52.860367 
	C135.551147,52.379948 136.102249,51.945534 136.815979,51.728512 
z"/>
<path fill="#FFFDFB" opacity="1.000000" stroke="none" 
	d="
M130.153473,122.239395 
	C130.615585,122.104660 131.238724,122.208084 131.887360,122.583832 
	C131.380066,122.729958 130.847290,122.603752 130.153473,122.239395 
z"/>
<path fill="#FFFAF5" opacity="1.000000" stroke="none" 
	d="
M148.049240,128.934784 
	C148.548630,129.260834 149.048019,129.586884 149.547409,129.912933 
	C149.363663,130.124329 149.179916,130.335724 148.996170,130.547119 
	C148.677673,130.234451 148.359192,129.921768 148.019440,129.301788 
	C147.998184,128.994476 148.049240,128.934784 148.049240,128.934784 
z"/>
<path fill="#FFFBF8" opacity="1.000000" stroke="none" 
	d="
M165.388504,126.952042 
	C165.788498,126.707695 166.186676,126.709312 166.582642,126.739647 
	C166.593643,126.740494 166.581055,127.049149 166.579468,127.214264 
	C166.181763,127.210167 165.784073,127.206078 165.388504,126.952042 
z"/>
<path fill="#FFFAF5" opacity="1.000000" stroke="none" 
	d="
M152.465759,133.608032 
	C152.348343,134.060989 152.062744,134.338959 151.759003,134.595444 
	C151.751190,134.602051 151.544708,134.373428 151.430862,134.254517 
	C151.718979,133.979736 152.007095,133.704971 152.465759,133.608032 
z"/>
<path fill="#FFF8F3" opacity="1.000000" stroke="none" 
	d="
M147.161652,45.859756 
	C147.243927,46.251492 147.170273,46.489716 147.096619,46.727940 
	C146.828308,46.462887 146.560013,46.197830 146.291702,45.932777 
	C146.529709,45.857265 146.767715,45.781754 147.161652,45.859756 
z"/>
<path fill="#DFE7F4" opacity="1.000000" stroke="none" 
	d="
M181.490265,117.019753 
	C181.801697,117.206993 181.845444,117.422783 181.859970,117.971687 
	C181.348877,118.255768 180.867020,118.206726 180.183655,118.069839 
	C180.395599,117.670761 180.809082,117.359528 181.490265,117.019753 
z"/>
<path fill="#FFF8F3" opacity="1.000000" stroke="none" 
	d="
M156.730957,48.348396 
	C156.991821,48.363117 157.134277,48.502537 157.276749,48.641953 
	C157.055359,48.585663 156.833954,48.529377 156.730957,48.348396 
z"/>
<path fill="#FFFBF8" opacity="1.000000" stroke="none" 
	d="
M168.742126,132.356079 
	C168.992020,132.370834 169.128250,132.504639 169.264481,132.638443 
	C169.052475,132.584015 168.840454,132.529572 168.742126,132.356079 
z"/>
<path fill="#FFFAF5" opacity="1.000000" stroke="none" 
	d="
M138.267548,46.652542 
	C138.003372,46.637569 137.859009,46.496342 137.714630,46.355118 
	C137.938873,46.412170 138.163101,46.469227 138.267548,46.652542 
z"/>
<path fill="#FFFDFB" opacity="1.000000" stroke="none" 
	d="
M135.096970,123.216354 
	C135.275467,122.929756 135.549347,122.800079 135.913239,122.846237 
	C135.732956,123.139145 135.462662,123.256203 135.096970,123.216354 
z"/>
<path fill="#DFE7F4" opacity="1.000000" stroke="none" 
	d="
M177.027069,120.216263 
	C177.097275,119.782005 177.334015,119.515175 177.835968,119.190742 
	C177.798676,119.549988 177.496140,119.966843 177.027069,120.216263 
z"/>
<path fill="#FFFAF5" opacity="1.000000" stroke="none" 
	d="
M136.285553,42.392982 
	C136.155380,42.558456 135.929855,42.583065 135.704315,42.607674 
	C135.866272,42.489151 136.028214,42.370632 136.285553,42.392982 
z"/>
<path fill="#FAA83F" opacity="1.000000" stroke="none" 
	d="
M155.977173,139.037445 
	C155.994049,139.028000 155.721344,138.757538 155.721344,138.757538 
	C155.721344,138.757538 155.889343,138.869812 155.913193,138.975891 
	C155.937042,139.081985 155.960281,139.046875 155.977173,139.037445 
z"/>
<path fill="#FFFAF5" opacity="1.000000" stroke="none" 
	d="
M147.968689,129.020432 
	C147.829346,128.879120 147.719482,128.711838 147.609619,128.544571 
	C147.707199,128.585983 147.804794,128.627396 147.975800,128.801788 
	C148.049240,128.934784 147.998184,128.994476 147.968689,129.020432 
z"/>
<path fill="#FFFAF5" opacity="1.000000" stroke="none" 
	d="
M147.106354,124.219879 
	C147.018738,124.065834 147.500381,124.035339 147.740967,124.050018 
	C147.719009,124.167770 147.456482,124.270851 147.106354,124.219879 
z"/>
<path fill="#FCB968" opacity="1.000000" stroke="none" 
	d="
M165.098602,51.694351 
	C164.846497,51.941776 164.548416,51.824306 164.147629,51.400852 
	C164.336548,51.285339 164.672455,51.363537 165.098602,51.694351 
z"/>
<path fill="#FFF8F3" opacity="1.000000" stroke="none" 
	d="
M142.969833,39.020416 
	C142.830383,38.877331 142.719009,38.709492 142.607651,38.541653 
	C142.705780,38.584015 142.803894,38.626381 142.974457,38.803864 
	C143.046875,38.938988 142.997925,38.995663 142.969833,39.020416 
z"/>
<path fill="#FCFBFB" opacity="1.000000" stroke="none" 
	d="
M133.935455,99.082130 
	C131.928802,98.424324 129.897507,97.831047 127.926819,97.079002 
	C127.060135,96.748260 125.620079,96.083107 125.628067,95.589005 
	C125.689888,91.766502 126.042450,87.948700 126.907265,84.051819 
	C127.676018,83.941963 127.842476,83.909752 128.008926,83.877541 
	C128.420975,83.924042 128.833023,83.970535 129.694885,84.311737 
	C135.430649,85.714661 140.716599,86.822876 146.430695,87.954544 
	C150.565750,87.634521 154.272690,87.291061 158.378128,86.963692 
	C159.840088,86.995567 160.903534,87.011345 161.991302,87.273277 
	C162.015640,87.519440 162.065353,88.012093 162.042084,88.442207 
	C162.039841,90.604507 162.060867,92.336685 161.765854,94.348740 
	C154.336792,94.628609 147.223770,94.628609 140.110748,94.628609 
	C140.114655,95.118408 140.118561,95.608215 140.122467,96.098015 
	C147.389740,96.098015 154.657028,96.098015 161.947418,96.463547 
	C161.628586,97.927292 161.286667,99.025497 160.528046,100.115105 
	C151.386047,99.765045 142.660751,99.423584 133.935455,99.082130 
M131.030838,95.716545 
	C132.595200,95.598694 134.159561,95.480850 135.723923,95.362999 
	C135.320099,93.862930 135.351471,91.878891 134.382355,91.007446 
	C133.521271,90.233139 131.550507,90.692856 130.069550,90.607887 
	C130.231934,92.142616 130.394302,93.677353 131.030838,95.716545 
z"/>
<path fill="#FCFCFC" opacity="1.000000" stroke="none" 
	d="
M133.948547,67.922714 
	C136.367661,68.144127 138.786774,68.365540 141.763000,68.726807 
	C144.873383,69.187103 147.426651,69.507545 150.316833,69.892563 
	C151.106247,69.911690 151.558792,69.866249 152.345795,69.889862 
	C153.131409,69.915550 153.582535,69.872177 154.457520,69.896034 
	C156.880722,69.934097 158.880081,69.904930 161.158646,69.929024 
	C161.623383,70.020790 161.808929,70.059288 161.996552,70.512192 
	C161.858444,73.326607 161.200623,75.843582 161.709732,78.096901 
	C162.339096,80.882431 161.284607,82.057541 158.598236,82.929626 
	C155.112106,82.916428 152.085434,82.905579 148.736938,82.639320 
	C142.603989,81.623375 136.792908,80.862823 130.981812,80.102280 
	C123.737885,79.701462 126.410423,73.618744 125.154099,69.819397 
	C124.855141,68.915283 125.079361,67.838173 125.423050,66.445251 
	C128.504959,66.674156 131.226746,67.298439 133.948547,67.922714 
M135.812653,75.858955 
	C135.476944,75.305328 135.246567,74.399406 134.786453,74.261833 
	C133.186432,73.783470 131.506744,73.571480 129.857361,73.258194 
	C130.268555,74.853653 130.193665,76.938591 131.198395,77.936363 
	C132.954758,79.680565 135.130386,79.950623 135.812653,75.858955 
z"/>
<path fill="#FCFBFA" opacity="1.000000" stroke="none" 
	d="
M161.148682,118.605682 
	C156.968979,118.951286 152.941055,118.977280 148.448486,119.021912 
	C143.583801,118.410469 139.183762,117.780396 134.377869,117.139053 
	C131.668610,116.412048 129.138016,116.062462 127.154297,114.831551 
	C126.107140,114.181778 126.013245,111.995720 125.930824,110.189072 
	C126.248611,109.602234 126.124527,109.329605 126.000443,109.056976 
	C125.700783,107.012901 125.401115,104.968826 125.368057,102.494102 
	C126.446503,102.072067 127.258347,102.080681 128.070190,102.089302 
	C128.070190,102.089302 128.469513,102.084686 128.745575,102.406906 
	C133.507706,103.798714 137.947128,105.362785 142.493607,105.791420 
	C146.602051,106.178749 150.827499,105.325211 155.270172,105.311554 
	C160.722595,105.368286 163.184616,107.512268 161.522461,112.938461 
	C159.760956,113.017799 158.403824,113.067749 156.579865,113.077469 
	C152.268738,113.037247 148.424454,113.037247 144.580185,113.037247 
	C144.626434,113.769760 144.672699,114.502281 144.718948,115.234795 
	C148.811142,114.849960 152.903336,114.465126 157.406433,114.076790 
	C159.180710,114.091461 160.544083,114.109634 161.907440,114.127808 
	C161.705109,115.513901 161.502777,116.899986 161.148682,118.605682 
M130.635147,109.151932 
	C127.119209,112.538864 132.066101,113.020302 132.360550,115.583351 
	C133.983139,114.455635 135.142471,113.649887 137.438019,112.054459 
	C134.874115,110.694534 133.061356,109.733025 130.635147,109.151932 
z"/>
<path fill="#C1D5F8" opacity="1.000000" stroke="none" 
	d="
M155.001343,105.018867 
	C150.827499,105.325211 146.602051,106.178749 142.493607,105.791420 
	C137.947128,105.362785 133.507706,103.798714 128.945251,102.407272 
	C130.422394,101.253578 131.975906,100.421738 133.732452,99.336014 
	C142.660751,99.423584 151.386047,99.765045 160.499603,100.456955 
	C158.925705,102.211220 156.963516,103.615044 155.001343,105.018867 
z"/>
<path fill="#BDD1F5" opacity="1.000000" stroke="none" 
	d="
M130.986267,80.450226 
	C136.792908,80.862823 142.603989,81.623375 148.674133,82.982452 
	C147.956329,85.031029 146.979446,86.481064 146.002563,87.931091 
	C140.716599,86.822876 135.430649,85.714661 130.005096,84.334274 
	C130.240570,82.974129 130.615646,81.886147 130.986267,80.450226 
z"/>
<path fill="#B8335C" opacity="1.000000" stroke="none" 
	d="
M134.115219,67.690048 
	C131.226746,67.298439 128.504959,66.674156 125.387924,66.042732 
	C124.054817,65.302925 123.116943,64.570251 122.024796,63.575397 
	C121.611603,62.446598 121.352669,61.579990 121.107162,60.370605 
	C125.595001,61.946133 130.075394,63.851131 134.515564,65.845665 
	C134.651550,65.906754 134.369202,66.899162 134.115219,67.690048 
z"/>
<path fill="#AECCF9" opacity="1.000000" stroke="none" 
	d="
M127.863831,101.820229 
	C127.258347,102.080681 126.446503,102.072067 125.362312,102.082886 
	C124.531685,101.902428 123.973404,101.702545 123.415123,101.502655 
	C123.466454,101.211197 123.517776,100.919731 123.569107,100.628265 
	C124.931900,100.935898 126.294685,101.243523 127.863831,101.820229 
z"/>
<path fill="#AECCF9" opacity="1.000000" stroke="none" 
	d="
M126.000595,109.299461 
	C126.124527,109.329605 126.248611,109.602234 126.187668,109.950890 
	C126.002632,110.026917 126.000748,109.541946 126.000595,109.299461 
z"/>
<path fill="#BDD1F5" opacity="1.000000" stroke="none" 
	d="
M127.913300,83.726990 
	C127.842476,83.909752 127.676018,83.941963 127.259338,83.931610 
	C127.278625,83.784843 127.548141,83.680649 127.913300,83.726990 
z"/>
<path fill="#D6E6FD" opacity="1.000000" stroke="none" 
	d="
M159.057709,82.931961 
	C161.284607,82.057541 162.339096,80.882431 161.709732,78.096901 
	C161.200623,75.843582 161.858444,73.326607 162.321365,70.478279 
	C163.429657,69.755249 164.215210,69.480530 165.253235,69.133980 
	C165.678452,69.090096 165.851181,69.118042 166.186005,69.480888 
	C167.617523,75.044846 167.617523,75.044846 171.368561,74.063538 
	C172.484451,76.081154 173.234192,78.031235 173.983932,79.981323 
	C173.350037,81.770164 172.716141,83.559013 171.937057,85.909363 
	C171.582901,86.736717 171.314911,86.912766 170.609161,86.990501 
	C167.469986,85.913422 164.700363,83.153336 161.966980,87.027115 
	C160.903534,87.011345 159.840088,86.995567 158.421204,86.620468 
	C158.396423,85.151413 158.727066,84.041687 159.057709,82.931961 
M170.413452,84.482948 
	C170.413452,84.482948 170.522903,84.417961 170.413452,84.482948 
z"/>
<path fill="#D6E4FB" opacity="1.000000" stroke="none" 
	d="
M155.270172,105.311554 
	C156.963516,103.615044 158.925705,102.211220 160.916306,100.465546 
	C161.286667,99.025497 161.628586,97.927292 162.398193,96.433029 
	C166.165085,95.658867 169.504318,95.280762 172.893250,95.262161 
	C173.627701,96.398964 174.312485,97.176277 174.997253,97.953590 
	C174.373398,99.422272 173.749527,100.890945 172.933563,102.982872 
	C171.801651,104.406380 170.861832,105.206642 169.532684,106.019592 
	C168.428711,108.022049 167.714050,110.011833 166.627472,112.009979 
	C164.812653,112.315262 163.369751,112.612175 161.926849,112.909088 
	C163.184616,107.512268 160.722595,105.368286 155.270172,105.311554 
M166.567825,104.295860 
	C166.295273,104.010345 166.022736,103.724823 165.750183,103.439301 
	C165.631989,103.552307 165.404831,103.757362 165.411331,103.765045 
	C165.665680,104.066154 165.941299,104.349281 166.567825,104.295860 
z"/>
<path fill="#FFFEFE" opacity="1.000000" stroke="none" 
	d="
M169.922012,106.006897 
	C170.861832,105.206642 171.801651,104.406380 172.899536,103.335754 
	C173.932617,103.171852 174.807617,103.278313 176.190567,103.205475 
	C177.121368,103.028587 177.544220,103.031006 177.967072,103.033432 
	C177.185577,107.228203 180.052246,112.091209 175.333389,115.802887 
	C174.328094,115.206116 173.650101,114.431183 173.153656,113.046478 
	C174.366318,111.902382 175.397430,111.368050 176.693558,110.696396 
	C174.116852,110.403671 172.078659,110.172127 170.021927,109.548141 
	C169.976257,108.106094 169.949142,107.056496 169.922012,106.006897 
z"/>
<path fill="#FFFDFC" opacity="1.000000" stroke="none" 
	d="
M174.207977,79.695267 
	C173.234192,78.031235 172.484451,76.081154 171.364655,73.653732 
	C170.972534,72.084671 170.950455,70.992958 171.064865,69.622803 
	C172.134445,68.544373 173.067535,67.744392 174.340958,66.965118 
	C175.271255,66.700798 175.861191,66.415787 176.705383,66.127869 
	C177.288788,66.045303 177.617950,65.965637 177.947098,65.885963 
	C177.965515,68.357414 177.780060,70.851715 178.053741,73.294563 
	C178.399033,76.376564 177.267029,78.334259 174.207977,79.695267 
z"/>
<path fill="#FFFEFE" opacity="1.000000" stroke="none" 
	d="
M175.226288,97.665741 
	C174.312485,97.176277 173.627701,96.398964 173.121460,95.020950 
	C174.371429,93.884827 175.442856,93.349419 175.780029,93.180923 
	C174.186935,92.194489 172.531876,91.169685 170.913757,89.751259 
	C170.963120,88.571426 170.975540,87.785225 170.987946,86.999023 
	C171.314911,86.912766 171.582901,86.736717 171.911743,86.258881 
	C173.701050,85.553612 175.370514,85.060318 177.797699,84.343147 
	C177.238770,89.068710 180.353043,93.743713 175.226288,97.665741 
z"/>
<path fill="#FBA03C" opacity="1.000000" stroke="none" 
	d="
M178.108047,65.614960 
	C177.617950,65.965637 177.288788,66.045303 176.297546,66.091415 
	C175.093155,66.036682 174.550842,66.015503 174.007355,65.745148 
	C174.006165,65.495979 174.001831,64.997643 173.948944,64.652412 
	C169.263016,61.871376 164.629974,59.435574 159.996948,56.999771 
	C161.452240,53.330452 163.695526,56.210144 165.133286,56.722130 
	C170.272522,58.552219 175.237534,60.871609 180.658768,63.028214 
	C181.049088,63.050533 181.046707,63.483578 181.007904,63.696533 
	C180.069077,64.387642 179.169037,64.865799 178.108047,65.614960 
z"/>
<path fill="#DFE7F4" opacity="1.000000" stroke="none" 
	d="
M177.873108,102.772858 
	C177.544220,103.031006 177.121368,103.028587 176.382217,103.024475 
	C176.169785,102.597107 176.273666,102.171417 176.377533,101.745728 
	C176.844727,102.001251 177.311920,102.256775 177.873108,102.772858 
z"/>
<path fill="#B0D0FF" opacity="1.000000" stroke="none" 
	d="
M170.040466,109.940582 
	C172.078659,110.172127 174.116852,110.403671 176.693558,110.696396 
	C175.397430,111.368050 174.366318,111.902382 173.122925,112.686928 
	C169.541901,113.307442 166.173126,113.677742 162.355896,114.087921 
	C160.544083,114.109634 159.180710,114.091461 157.417084,113.835632 
	C157.016815,113.597969 157.046707,113.117699 157.046707,113.117699 
	C158.403824,113.067749 159.760956,113.017799 161.522461,112.938469 
	C163.369751,112.612175 164.812653,112.315262 166.947113,111.978371 
	C168.439270,111.272461 169.239868,110.606529 170.040466,109.940582 
z"/>
<path fill="#FBA03C" opacity="1.000000" stroke="none" 
	d="
M181.410187,62.996838 
	C181.037750,62.869709 181.024048,62.694080 181.002701,62.254200 
	C181.455536,61.156246 181.916031,60.322548 182.616760,59.326614 
	C182.494308,60.425697 182.131607,61.687016 181.410187,62.996838 
z"/>
<path fill="#FE6B33" opacity="1.000000" stroke="none" 
	d="
M149.563034,59.027897 
	C149.946732,60.115021 149.963852,61.177898 149.953766,62.640991 
	C147.388474,61.906178 144.850418,60.771145 142.152328,59.332619 
	C142.178177,58.132050 142.364059,57.234974 142.559891,56.289837 
	C144.986008,57.281921 147.091248,58.142784 149.563034,59.027897 
z"/>
<path fill="#DE5643" opacity="1.000000" stroke="none" 
	d="
M149.979935,69.827988 
	C147.426651,69.507545 144.873383,69.187103 142.095917,68.551727 
	C141.909943,67.433167 141.948166,66.629539 141.980682,65.423462 
	C141.981674,64.849648 141.988327,64.678276 142.002075,64.249649 
	C144.420853,64.990616 146.832535,65.988838 149.622650,67.348633 
	C149.994019,68.416138 149.986969,69.122063 149.979935,69.827988 
z"/>
<path fill="#FD853A" opacity="1.000000" stroke="none" 
	d="
M150.316833,69.892555 
	C149.986969,69.122063 149.994019,68.416138 149.992828,67.355484 
	C149.989731,66.553307 149.994888,66.105873 150.010437,65.322357 
	C150.199341,64.991684 150.377869,64.997086 151.081161,65.253555 
	C151.741058,66.943344 151.876190,68.382072 152.011322,69.820808 
	C151.558792,69.866249 151.106247,69.911690 150.316833,69.892555 
z"/>
<path fill="#FC8F3E" opacity="1.000000" stroke="none" 
	d="
M174.001831,64.997643 
	C174.001831,64.997643 174.006165,65.495979 174.004272,65.982697 
	C174.002380,66.469421 174.000610,66.944412 174.000610,66.944412 
	C173.067535,67.744392 172.134445,68.544373 170.830704,69.607315 
	C170.162323,69.701790 169.997055,69.447258 169.967957,68.727287 
	C167.288773,66.288986 164.605911,64.230095 161.082199,61.525913 
	C161.082199,65.001747 161.082199,67.113068 161.036392,69.388756 
	C160.990585,69.553123 160.879440,69.875763 160.879440,69.875763 
	C158.880081,69.904930 156.880722,69.934097 154.733826,69.648132 
	C158.341110,69.458252 159.593613,67.510803 158.989441,63.634537 
	C158.904587,57.867302 153.759705,58.955650 150.997070,56.996361 
	C152.022324,56.514851 153.146759,55.502312 154.050568,55.671089 
	C155.563934,55.953705 156.936584,56.989872 158.695663,57.840958 
	C159.022873,57.973015 159.506378,57.979931 159.949310,58.259964 
	C164.928772,60.692543 169.465302,62.845093 174.001831,64.997643 
z"/>
<path fill="#FC993D" opacity="1.000000" stroke="none" 
	d="
M173.948944,64.652412 
	C169.465302,62.845093 164.928772,60.692543 160.191101,58.260727 
	C159.989944,57.981461 159.994125,57.490627 159.995544,57.245201 
	C164.629974,59.435574 169.263016,61.871376 173.948944,64.652412 
z"/>
<path fill="#FA6633" opacity="1.000000" stroke="none" 
	d="
M158.985306,64.022072 
	C159.593613,67.510803 158.341110,69.458252 154.309967,69.580902 
	C153.582535,69.872177 153.131409,69.915550 152.345795,69.889862 
	C151.876190,68.382072 151.741058,66.943344 151.348969,65.260269 
	C151.079773,63.962204 151.067520,62.908485 151.428818,61.443855 
	C154.196671,62.029324 156.590988,63.025696 158.985306,64.022072 
z"/>
<path fill="#FD853A" opacity="1.000000" stroke="none" 
	d="
M158.989441,63.634537 
	C156.590988,63.025696 154.196671,62.029324 151.439941,61.049347 
	C151.050629,59.980072 151.023712,58.894394 150.996933,57.402538 
	C153.759705,58.955650 158.904587,57.867302 158.989441,63.634537 
z"/>
<path fill="#FC8F3E" opacity="1.000000" stroke="none" 
	d="
M150.553528,53.467155 
	C150.587585,53.524269 150.519455,53.410046 150.553528,53.467155 
z"/>
<path fill="#B0D0FF" opacity="1.000000" stroke="none" 
	d="
M170.876816,90.144882 
	C172.531876,91.169685 174.186935,92.194489 175.780029,93.180923 
	C175.442856,93.349419 174.371429,93.884827 173.071777,94.661453 
	C169.504318,95.280762 166.165085,95.658867 162.375092,96.067490 
	C154.657028,96.098015 147.389740,96.098015 140.122467,96.098015 
	C140.118561,95.608215 140.114655,95.118408 140.110748,94.628609 
	C147.223770,94.628609 154.336792,94.628609 162.172958,94.332291 
	C164.264145,94.007622 165.632187,93.979271 167.327148,93.923965 
	C168.728317,92.646294 169.802567,91.395584 170.876816,90.144882 
z"/>
<path fill="#C6DDFF" opacity="1.000000" stroke="none" 
	d="
M158.598236,82.929626 
	C158.727066,84.041687 158.396423,85.151413 158.022690,86.604370 
	C154.272690,87.291061 150.565750,87.634521 146.430695,87.954544 
	C146.979446,86.481064 147.956329,85.031029 148.995987,83.237854 
	C152.085434,82.905579 155.112106,82.916428 158.598236,82.929626 
z"/>
<path fill="#F68523" opacity="1.000000" stroke="none" 
	d="
M130.793762,95.464310 
	C130.394302,93.677353 130.231934,92.142616 130.069550,90.607887 
	C131.550507,90.692856 133.521271,90.233139 134.382355,91.007446 
	C135.351471,91.878891 135.320099,93.862930 135.723923,95.363007 
	C134.159561,95.480850 132.595200,95.598694 130.793762,95.464310 
z"/>
<path fill="#D6E3F9" opacity="1.000000" stroke="none" 
	d="
M170.913757,89.751251 
	C169.802567,91.395584 168.728317,92.646294 167.327454,93.501755 
	C167.604141,89.230049 166.184296,87.313629 162.065353,88.012093 
	C162.065353,88.012093 162.015640,87.519440 161.991302,87.273277 
	C164.700363,83.153336 167.469986,85.913422 170.609161,86.990501 
	C170.975540,87.785225 170.963120,88.571426 170.913757,89.751251 
z"/>
<path fill="#D6E6FD" opacity="1.000000" stroke="none" 
	d="
M162.042084,88.442207 
	C166.184296,87.313629 167.604141,89.230049 167.000519,93.528717 
	C165.632187,93.979271 164.264145,94.007622 162.488998,94.052429 
	C162.060867,92.336685 162.039841,90.604507 162.042084,88.442207 
z"/>
<path fill="#FE7344" opacity="1.000000" stroke="none" 
	d="
M135.829453,76.230927 
	C135.130386,79.950623 132.954758,79.680565 131.198395,77.936363 
	C130.193665,76.938591 130.268555,74.853653 129.857361,73.258194 
	C131.506744,73.571480 133.186432,73.783470 134.786453,74.261833 
	C135.246567,74.399406 135.476944,75.305328 135.829453,76.230927 
z"/>
<path fill="#D9E7FC" opacity="1.000000" stroke="none" 
	d="
M161.158646,69.929024 
	C160.879440,69.875763 160.990585,69.553123 161.428558,69.408813 
	C162.911285,69.244942 163.956039,69.225372 165.000778,69.205803 
	C164.215210,69.480530 163.429657,69.755249 162.319275,70.063881 
	C161.808929,70.059288 161.623383,70.020790 161.158646,69.929024 
z"/>
<path fill="#F68523" opacity="1.000000" stroke="none" 
	d="
M130.941864,108.961731 
	C133.061356,109.733025 134.874115,110.694534 137.438019,112.054459 
	C135.142471,113.649887 133.983139,114.455635 132.360550,115.583351 
	C132.066101,113.020302 127.119209,112.538864 130.941864,108.961731 
z"/>
<path fill="#C6DDFF" opacity="1.000000" stroke="none" 
	d="
M156.579865,113.077469 
	C157.046707,113.117699 157.016815,113.597969 157.006165,113.839127 
	C152.903336,114.465126 148.811142,114.849960 144.718948,115.234795 
	C144.672699,114.502281 144.626434,113.769760 144.580185,113.037247 
	C148.424454,113.037247 152.268738,113.037247 156.579865,113.077469 
z"/>
<path fill="#FD7B37" opacity="1.000000" stroke="none" 
	d="
M165.253235,69.133980 
	C163.956039,69.225372 162.911285,69.244942 161.474365,69.244446 
	C161.082199,67.113068 161.082199,65.001747 161.082199,61.525913 
	C164.605911,64.230095 167.288773,66.288986 169.576385,68.648918 
	C168.128738,69.015312 167.076340,69.080650 166.023926,69.145996 
	C165.851181,69.118042 165.678452,69.090096 165.253235,69.133980 
z"/>
<path fill="#D9E7FC" opacity="1.000000" stroke="none" 
	d="
M166.186005,69.480881 
	C167.076340,69.080650 168.128738,69.015312 169.572708,69.028336 
	C169.997055,69.447258 170.162323,69.701790 170.694214,69.885765 
	C170.950455,70.992958 170.972534,72.084671 170.998505,73.586197 
	C167.617523,75.044846 167.617523,75.044846 166.186005,69.480881 
z"/>
<path fill="#D6E3F9" opacity="1.000000" stroke="none" 
	d="
M170.468170,84.450455 
	C170.522903,84.417961 170.413452,84.482948 170.468170,84.450455 
z"/>
<path fill="#D6E6FD" opacity="1.000000" stroke="none" 
	d="
M170.021942,109.548141 
	C169.239868,110.606529 168.439270,111.272461 167.319031,111.970001 
	C167.714050,110.011833 168.428711,108.022049 169.532684,106.019585 
	C169.949142,107.056496 169.976257,108.106094 170.021942,109.548141 
z"/>
<path fill="#D6E6FD" opacity="1.000000" stroke="none" 
	d="
M166.390991,104.465317 
	C165.941299,104.349281 165.665680,104.066154 165.411331,103.765045 
	C165.404831,103.757362 165.631989,103.552307 165.750183,103.439301 
	C166.022736,103.724823 166.295273,104.010345 166.390991,104.465317 
z"/>
<path fill="#FC993D" opacity="1.000000" stroke="none" 
	d="
M174.340958,66.965118 
	C174.000610,66.944412 174.002380,66.469421 174.005463,66.231873 
	C174.550842,66.015503 175.093155,66.036682 176.043289,66.094315 
	C175.861191,66.415787 175.271255,66.700798 174.340958,66.965118 
z"/>
</svg>