<svg version="1.1" id="Layer_1" xmlns="http://www.w3.org/2000/svg" xmlns:xlink="http://www.w3.org/1999/xlink" x="0px" y="0px"
	 width="100%" viewBox="0 0 225 225" enable-background="new 0 0 225 225" xml:space="preserve">
<path fill="#FFFEFE" opacity="1.000000" stroke="none" 
	d="
M226.000000,109.000000 
	C226.000000,148.333328 226.000000,187.166672 226.000000,226.000000 
	C151.000000,226.000000 76.000000,226.000000 1.000000,226.000000 
	C1.000000,151.000000 1.000000,76.000000 1.000000,1.000000 
	C76.000000,1.000000 151.000000,1.000000 226.000000,1.000000 
	C226.000000,36.833332 226.000000,72.666664 226.000000,109.000000 
M122.491096,13.423882 
	C116.587593,22.253178 110.684082,31.082472 104.198624,40.254597 
	C98.771362,48.429325 93.344101,56.604053 87.326096,65.140968 
	C81.879868,73.415863 76.433647,81.690758 70.460762,90.390900 
	C64.599075,99.033424 59.210995,108.054283 52.713036,116.188522 
	C48.208172,121.827759 47.911331,126.448692 52.333546,131.754272 
	C52.437935,131.879501 52.589241,131.965652 52.856209,132.680176 
	C53.236618,133.114746 53.617027,133.549316 54.885963,134.318314 
	C68.926826,134.282288 82.967697,134.246262 97.760857,134.377167 
	C100.297104,134.240311 102.438385,134.513016 101.184303,138.671036 
	C100.574341,142.867126 99.941696,147.060074 99.358826,151.259918 
	C97.846535,162.156799 96.356148,173.056732 94.212692,184.393158 
	C92.468178,195.469772 90.723663,206.546402 88.949120,217.813629 
	C92.402321,219.181091 95.534821,220.766251 98.856377,221.572098 
	C100.240654,221.907913 102.695312,221.065369 103.513367,219.930054 
	C106.695435,215.513870 109.416145,210.765228 112.840759,205.745773 
	C118.445488,196.871521 124.050217,187.997253 130.080124,178.519989 
	C135.151382,170.714996 140.222641,162.909988 145.802444,154.662186 
	C152.120605,144.830353 158.438766,134.998520 165.172028,124.723763 
	C169.241669,118.481911 173.348175,112.263672 177.367538,105.989609 
	C179.893784,102.046249 175.017242,92.688721 170.332855,92.655602 
	C161.226852,92.591225 152.119339,92.740028 142.097336,92.650757 
	C136.756363,92.650757 131.415375,92.650757 125.597183,92.650757 
	C127.079460,84.310135 128.341812,77.207031 129.901764,69.446495 
	C132.417145,55.996750 134.932526,42.547009 137.802658,28.450838 
	C138.248184,26.001221 138.681229,23.549255 139.141342,21.102381 
	C141.519516,8.455742 141.521927,8.456195 128.504944,4.376122 
	C126.718567,7.183253 124.866219,10.094049 122.491096,13.423882 
M204.996323,157.500000 
	C204.996338,118.670898 204.999466,79.841789 204.993423,41.012688 
	C204.992355,34.216824 199.721481,29.022692 192.839447,29.017281 
	C182.007294,29.008766 171.175156,29.015020 160.343002,29.015018 
	C156.400513,29.015017 152.458008,29.015015 148.445877,29.015015 
	C146.533646,39.567276 144.742035,49.453999 142.946030,59.364956 
	C146.688385,60.975719 148.352921,59.631077 148.938751,56.364105 
	C149.992249,50.489021 151.058762,44.616142 152.076782,38.734886 
	C152.613068,35.636700 153.724594,33.892784 157.534943,33.993290 
	C168.859161,34.291996 180.196350,34.082146 191.528381,34.107712 
	C197.367859,34.120888 199.892624,36.691212 199.893936,42.630890 
	C199.904465,89.792397 199.903229,136.953903 199.895721,184.115417 
	C199.894714,190.409317 197.464813,192.888962 191.282135,192.894318 
	C173.450775,192.909790 155.618774,192.975143 137.788498,192.835541 
	C134.271210,192.807999 132.142853,193.862183 131.353928,197.605560 
	C132.116501,197.747452 132.726318,197.959564 133.336334,197.960175 
	C153.834061,197.980576 174.331894,198.015396 194.829453,197.956284 
	C199.186569,197.943726 204.949493,191.930573 204.977325,187.496704 
	C205.037994,177.831482 204.996216,168.165604 204.996323,157.500000 
M47.501148,197.984222 
	C57.500172,197.983948 67.499512,197.938232 77.498032,198.008957 
	C80.838120,198.032578 82.598907,197.043457 81.386955,192.900345 
	C79.530464,192.900345 77.727180,192.900360 75.923897,192.900360 
	C62.591831,192.900360 49.259762,192.909256 35.927708,192.896484 
	C29.600983,192.890411 27.106600,190.483536 27.105257,184.326111 
	C27.094965,137.163940 27.095966,90.001755 27.103964,42.839581 
	C27.105026,36.576614 29.550905,34.109451 35.762020,34.104691 
	C54.260250,34.090508 72.759193,34.016243 91.256149,34.170403 
	C94.915901,34.200901 97.339035,33.309639 98.281715,29.015862 
	C96.527901,29.015862 94.927063,29.015863 93.326225,29.015862 
	C73.661430,29.015839 53.996632,29.012362 34.331837,29.017611 
	C27.158529,29.019526 22.006496,34.170830 22.006027,41.342590 
	C22.002922,88.838066 22.004410,136.333542 22.004454,183.829025 
	C22.004461,193.591278 26.348522,197.983856 36.003124,197.984222 
	C39.502792,197.984344 43.002457,197.984207 47.501148,197.984222 
M62.347244,185.912781 
	C69.093803,185.900482 69.093803,185.900482 68.943420,179.788818 
	C59.416058,179.788818 49.861462,179.788818 40.161743,179.788818 
	C39.339886,170.540756 42.107006,160.994354 34.088413,153.512115 
	C34.088413,162.859436 34.173512,171.679245 34.051262,180.496201 
	C33.993172,184.685684 36.014557,186.026047 39.911270,185.951584 
	C47.066494,185.814819 54.226196,185.912598 62.347244,185.912781 
M147.584412,185.915848 
	C152.915787,185.915848 158.247177,185.915848 164.178497,185.915848 
	C161.672363,181.469467 159.035904,179.571472 154.818527,179.979309 
	C151.704712,180.280426 148.525909,180.215134 145.398621,179.993927 
	C141.502213,179.718323 139.769028,181.594391 138.952332,185.915680 
	C141.791428,185.915680 144.206848,185.915680 147.584412,185.915848 
M59.444187,51.893250 
	C61.879261,48.426788 61.128971,45.547234 57.486893,43.712521 
	C54.341087,42.127808 51.769855,43.670391 50.773693,46.648407 
	C50.262043,48.177967 50.841446,51.393921 51.820328,51.826069 
	C53.870110,52.730988 56.510998,52.296959 59.444187,51.893250 
M72.339310,52.893959 
	C75.051407,50.680492 76.158958,47.784229 73.418472,45.318005 
	C71.993507,44.035656 68.731110,43.471546 67.033615,44.229290 
	C65.645401,44.848984 64.412369,48.096386 64.763885,49.846809 
	C65.443367,53.230412 68.165535,54.487404 72.339310,52.893959 
M38.617008,52.900768 
	C43.884491,54.345440 47.880833,51.581177 46.326012,47.320351 
	C45.709671,45.631332 43.646252,43.754993 41.941666,43.398502 
	C40.506042,43.098263 37.560192,44.566418 37.204815,45.803768 
	C36.640835,47.767433 37.679203,50.191303 38.617008,52.900768 
z"/>
<path fill="#F79E3B" opacity="1.000000" stroke="none" 
	d="
M164.756927,125.166679 
	C158.438766,134.998520 152.120605,144.830353 145.163864,154.850662 
	C143.176544,153.965988 141.415771,153.152954 140.547058,151.776779 
	C135.542603,143.848877 130.890884,135.697388 125.849960,127.793655 
	C118.861572,116.836441 111.544289,106.088608 104.588799,95.111115 
	C103.262375,93.017693 102.961182,90.274658 101.801178,86.613785 
	C94.227081,82.586685 90.143517,74.321831 87.916840,64.778786 
	C93.344101,56.604053 98.771362,48.429325 104.876892,40.111115 
	C106.731163,40.717400 108.323540,41.196503 109.015488,42.260941 
	C113.444061,49.073566 117.462746,56.161018 122.071289,62.844296 
	C124.011398,65.657814 127.059654,67.707184 129.604156,70.103928 
	C128.341812,77.207031 127.079460,84.310135 125.597183,92.650757 
	C131.415375,92.650757 136.756363,92.650757 142.551743,93.132950 
	C143.060684,94.441032 142.824280,95.451332 143.213348,96.065170 
	C149.134460,105.406563 155.085831,114.730354 161.209030,123.939316 
	C161.760239,124.768280 163.545029,124.777016 164.756927,125.166679 
z"/>
<path fill="#F6993B" opacity="1.000000" stroke="none" 
	d="
M87.621468,64.959877 
	C90.143517,74.321831 94.227081,82.586685 101.801178,86.613785 
	C102.961182,90.274658 103.262375,93.017693 104.588799,95.111115 
	C111.544289,106.088608 118.861572,116.836441 125.849960,127.793655 
	C130.890884,135.697388 135.542603,143.848877 140.547058,151.776779 
	C141.415771,153.152954 143.176544,153.965988 144.909592,155.072067 
	C140.222641,162.909988 135.151382,170.714996 129.670959,178.404083 
	C122.605324,168.062500 116.036285,157.778229 109.243584,147.643860 
	C106.953590,144.227325 104.096039,141.191193 101.497879,137.981201 
	C102.438385,134.513016 100.297104,134.240311 97.382523,133.888031 
	C96.501938,131.879471 96.276779,130.187439 95.454521,128.867340 
	C87.355568,115.864761 79.157425,102.923965 70.987427,89.965645 
	C76.433647,81.690758 81.879868,73.415863 87.621468,64.959877 
z"/>
<path fill="#B7BBBD" opacity="1.000000" stroke="none" 
	d="
M204.996307,158.000000 
	C204.996216,168.165604 205.037994,177.831482 204.977325,187.496704 
	C204.949493,191.930573 199.186569,197.943726 194.829453,197.956284 
	C174.331894,198.015396 153.834061,197.980576 133.336334,197.960175 
	C132.726318,197.959564 132.116501,197.747452 131.353928,197.605560 
	C132.142853,193.862183 134.271210,192.807999 137.788498,192.835541 
	C155.618774,192.975143 173.450775,192.909790 191.282135,192.894318 
	C197.464813,192.888962 199.894714,190.409317 199.895721,184.115417 
	C199.903229,136.953903 199.904465,89.792397 199.893936,42.630890 
	C199.892624,36.691212 197.367859,34.120888 191.528381,34.107712 
	C180.196350,34.082146 168.859161,34.291996 157.534943,33.993290 
	C153.724594,33.892784 152.613068,35.636700 152.076782,38.734886 
	C151.058762,44.616142 149.992249,50.489021 148.938751,56.364105 
	C148.352921,59.631077 146.688385,60.975719 142.946030,59.364956 
	C144.742035,49.453999 146.533646,39.567276 148.445877,29.015015 
	C152.458008,29.015015 156.400513,29.015017 160.343002,29.015018 
	C171.175156,29.015020 182.007294,29.008766 192.839447,29.017281 
	C199.721481,29.022692 204.992355,34.216824 204.993423,41.012688 
	C204.999466,79.841789 204.996338,118.670898 204.996307,158.000000 
z"/>
<path fill="#B7BBBD" opacity="1.000000" stroke="none" 
	d="
M47.001637,197.984192 
	C43.002457,197.984207 39.502792,197.984344 36.003124,197.984222 
	C26.348522,197.983856 22.004461,193.591278 22.004454,183.829025 
	C22.004410,136.333542 22.002922,88.838066 22.006027,41.342590 
	C22.006496,34.170830 27.158529,29.019526 34.331837,29.017611 
	C53.996632,29.012362 73.661430,29.015839 93.326225,29.015862 
	C94.927063,29.015863 96.527901,29.015862 98.281715,29.015862 
	C97.339035,33.309639 94.915901,34.200901 91.256149,34.170403 
	C72.759193,34.016243 54.260250,34.090508 35.762020,34.104691 
	C29.550905,34.109451 27.105026,36.576614 27.103964,42.839581 
	C27.095966,90.001755 27.094965,137.163940 27.105257,184.326111 
	C27.106600,190.483536 29.600983,192.890411 35.927708,192.896484 
	C49.259762,192.909256 62.591831,192.900360 75.923897,192.900360 
	C77.727180,192.900360 79.530464,192.900345 81.386955,192.900345 
	C82.598907,197.043457 80.838120,198.032578 77.498032,198.008957 
	C67.499512,197.938232 57.500172,197.983948 47.001637,197.984192 
z"/>
<path fill="#F59338" opacity="1.000000" stroke="none" 
	d="
M101.341095,138.326111 
	C104.096039,141.191193 106.953590,144.227325 109.243584,147.643860 
	C116.036285,157.778229 122.605324,168.062500 129.458374,178.705582 
	C124.050217,187.997253 118.445488,196.871521 112.243286,205.795090 
	C109.167259,202.382172 106.781624,198.848389 104.185844,195.476410 
	C101.172485,191.561996 97.974724,187.789520 94.857010,183.955444 
	C96.356148,173.056732 97.846535,162.156799 99.358826,151.259918 
	C99.941696,147.060074 100.574341,142.867126 101.341095,138.326111 
z"/>
<path fill="#F59238" opacity="1.000000" stroke="none" 
	d="
M70.724091,90.178268 
	C79.157425,102.923965 87.355568,115.864761 95.454521,128.867340 
	C96.276779,130.187439 96.501938,131.879471 97.006378,133.804565 
	C82.967697,134.246262 68.926826,134.282288 54.409668,133.835449 
	C53.528469,132.925064 53.123566,132.497559 52.718658,132.070038 
	C52.589241,131.965652 52.437935,131.879501 52.333546,131.754272 
	C47.911331,126.448692 48.208172,121.827759 52.713036,116.188522 
	C59.210995,108.054283 64.599075,99.033424 70.724091,90.178268 
z"/>
<path fill="#F8A53E" opacity="1.000000" stroke="none" 
	d="
M129.752960,69.775208 
	C127.059654,67.707184 124.011398,65.657814 122.071289,62.844296 
	C117.462746,56.161018 113.444061,49.073566 109.015488,42.260941 
	C108.323540,41.196503 106.731163,40.717400 105.167862,39.939697 
	C110.684082,31.082472 116.587593,22.253178 123.100090,13.250674 
	C125.093880,14.626008 126.510590,16.147377 127.857117,17.728512 
	C131.071655,21.503098 134.253082,25.305874 137.447891,29.097263 
	C134.932526,42.547009 132.417145,55.996750 129.752960,69.775208 
z"/>
<path fill="#F8A53E" opacity="1.000000" stroke="none" 
	d="
M164.964478,124.945221 
	C163.545029,124.777016 161.760239,124.768280 161.209030,123.939316 
	C155.085831,114.730354 149.134460,105.406563 143.213348,96.065170 
	C142.824280,95.451332 143.060684,94.441032 143.009308,93.207832 
	C152.119339,92.740028 161.226852,92.591225 170.332855,92.655602 
	C175.017242,92.688721 179.893784,102.046249 177.367538,105.989609 
	C173.348175,112.263672 169.241669,118.481911 164.964478,124.945221 
z"/>
<path fill="#F48E37" opacity="1.000000" stroke="none" 
	d="
M94.534851,184.174301 
	C97.974724,187.789520 101.172485,191.561996 104.185844,195.476410 
	C106.781624,198.848389 109.167259,202.382172 111.977158,205.992340 
	C109.416145,210.765228 106.695435,215.513870 103.513367,219.930054 
	C102.695312,221.065369 100.240654,221.907913 98.856377,221.572098 
	C95.534821,220.766251 92.402321,219.181091 88.949120,217.813629 
	C90.723663,206.546402 92.468178,195.469772 94.534851,184.174301 
z"/>
<path fill="#C0C3C5" opacity="1.000000" stroke="none" 
	d="
M61.865639,185.912689 
	C54.226196,185.912598 47.066494,185.814819 39.911270,185.951584 
	C36.014557,186.026047 33.993172,184.685684 34.051262,180.496201 
	C34.173512,171.679245 34.088413,162.859436 34.088413,153.512115 
	C42.107006,160.994354 39.339886,170.540756 40.161743,179.788818 
	C49.861462,179.788818 59.416058,179.788818 68.943420,179.788818 
	C69.093803,185.900482 69.093803,185.900482 61.865639,185.912689 
z"/>
<path fill="#F9AA41" opacity="1.000000" stroke="none" 
	d="
M137.625275,28.774052 
	C134.253082,25.305874 131.071655,21.503098 127.857117,17.728512 
	C126.510590,16.147377 125.093880,14.626008 123.361481,13.041157 
	C124.866219,10.094049 126.718567,7.183253 128.504944,4.376122 
	C141.521927,8.456195 141.519516,8.455742 139.141342,21.102381 
	C138.681229,23.549255 138.248184,26.001221 137.625275,28.774052 
z"/>
<path fill="#C1C4C6" opacity="1.000000" stroke="none" 
	d="
M147.103333,185.915771 
	C144.206848,185.915680 141.791428,185.915680 138.952332,185.915680 
	C139.769028,181.594391 141.502213,179.718323 145.398621,179.993927 
	C148.525909,180.215134 151.704712,180.280426 154.818527,179.979309 
	C159.035904,179.571472 161.672363,181.469467 164.178497,185.915848 
	C158.247177,185.915848 152.915787,185.915848 147.103333,185.915771 
z"/>
<path fill="#F69C43" opacity="1.000000" stroke="none" 
	d="
M59.176666,52.153015 
	C56.510998,52.296959 53.870110,52.730988 51.820328,51.826069 
	C50.841446,51.393921 50.262043,48.177967 50.773693,46.648407 
	C51.769855,43.670391 54.341087,42.127808 57.486893,43.712521 
	C61.128971,45.547234 61.879261,48.426788 59.176666,52.153015 
z"/>
<path fill="#F69E43" opacity="1.000000" stroke="none" 
	d="
M71.991501,53.030540 
	C68.165535,54.487404 65.443367,53.230412 64.763885,49.846809 
	C64.412369,48.096386 65.645401,44.848984 67.033615,44.229290 
	C68.731110,43.471546 71.993507,44.035656 73.418472,45.318005 
	C76.158958,47.784229 75.051407,50.680492 71.991501,53.030540 
z"/>
<path fill="#F69A42" opacity="1.000000" stroke="none" 
	d="
M38.328354,52.660629 
	C37.679203,50.191303 36.640835,47.767433 37.204815,45.803768 
	C37.560192,44.566418 40.506042,43.098263 41.941666,43.398502 
	C43.646252,43.754993 45.709671,45.631332 46.326012,47.320351 
	C47.880833,51.581177 43.884491,54.345440 38.328354,52.660629 
z"/>
<path fill="#F48E2D" opacity="1.000000" stroke="none" 
	d="
M52.787434,132.375107 
	C53.123566,132.497559 53.528469,132.925064 53.965408,133.668243 
	C53.617027,133.549316 53.236618,133.114746 52.787434,132.375107 
z"/>
</svg>