<svg version="1.1" id="Layer_1" xmlns="http://www.w3.org/2000/svg" xmlns:xlink="http://www.w3.org/1999/xlink" x="0px" y="0px"
	 width="100%" viewBox="0 0 512 512" enable-background="new 0 0 512 512" xml:space="preserve">
<path fill="#4C6971" opacity="1.000000" stroke="none" 
	d="
M1.000000,186.000000 
	C1.000000,124.000000 1.000000,62.500000 1.000000,1.000000 
	C171.666672,1.000000 342.333344,1.000000 513.000000,1.000000 
	C513.000000,171.666672 513.000000,342.333344 513.000000,513.000000 
	C342.333344,513.000000 171.666672,513.000000 1.000000,513.000000 
	C1.000000,404.166656 1.000000,295.333344 1.000000,186.000000 
M417.051300,428.055542 
	C417.051300,428.055542 417.049866,428.015961 417.509857,427.867310 
	C417.831451,427.665588 417.936035,427.383423 417.983490,426.303925 
	C419.667664,422.897949 421.351868,419.492004 423.613159,415.703491 
	C427.788818,408.574066 432.025696,401.479645 436.124969,394.306549 
	C441.481873,384.932709 446.729950,375.496643 452.606323,365.702820 
	C454.414978,362.424377 456.158508,359.108002 458.043335,355.873932 
	C466.996216,340.512115 475.987640,325.172699 485.589417,309.678894 
	C485.403961,308.751343 485.218475,307.823822 485.233215,306.333282 
	C485.860901,305.569702 486.488586,304.806152 487.823456,303.952148 
	C492.257812,295.842346 496.845367,287.811554 501.082092,279.599731 
	C505.067596,271.874969 504.378937,263.313690 504.954559,254.089096 
	C503.655212,246.920929 503.544586,239.248230 500.768188,232.706985 
	C496.938446,223.684006 491.096802,215.514969 485.979156,206.246826 
	C484.814270,203.846741 483.835907,201.332886 482.453156,199.065643 
	C475.303680,187.342712 468.050751,175.682877 460.916382,163.263412 
	C455.955078,154.357925 451.029602,145.432144 446.004730,136.562668 
	C444.889648,134.594391 443.423767,132.824860 441.988831,130.244446 
	C439.761322,126.108772 437.637085,121.913017 435.276917,117.854492 
	C432.971466,113.890160 430.425110,110.065926 427.394348,105.776306 
	C425.251373,101.942749 423.141083,98.090477 420.958466,94.279617 
	C416.686432,86.820610 412.374023,79.384705 408.004028,71.294731 
	C407.943817,70.867256 407.883636,70.439781 407.767853,69.393105 
	C407.195557,68.578415 406.623260,67.763718 406.002991,66.990761 
	C406.002991,66.990761 406.063873,66.972954 405.881683,66.517433 
	C405.679169,66.192993 405.393738,66.082161 404.427063,65.808464 
	C399.876648,59.524002 396.527252,52.493591 390.111023,47.433685 
	C379.909882,39.388969 368.776642,33.437069 355.827484,33.194733 
	C328.577637,32.684769 301.310089,33.122116 273.115112,33.042313 
	C267.835358,33.087284 262.555603,33.132256 256.305908,33.041267 
	C223.924316,33.042824 191.542694,33.023090 159.161255,33.095676 
	C157.087097,33.100323 155.014526,33.819489 152.149460,34.088966 
	C146.778870,35.980309 141.408279,37.871655 135.331833,39.975288 
	C124.060097,45.441048 115.593407,53.763626 109.571022,64.747673 
	C103.835365,75.208786 97.834099,85.524269 91.334587,96.229774 
	C89.615074,98.995537 87.805847,101.710037 86.190910,104.535568 
	C77.157127,120.341263 68.170273,136.173782 58.844540,152.630630 
	C52.684185,163.175491 46.413788,173.658066 40.397671,184.284592 
	C35.424809,193.068359 30.752390,202.022217 25.331852,211.223114 
	C24.303629,212.890488 23.322092,214.588852 22.239550,216.220184 
	C15.573019,226.266373 10.530409,236.967621 8.964317,249.721725 
	C9.031490,254.817215 9.098663,259.912689 9.048905,265.733246 
	C10.659317,271.168243 12.269728,276.603241 14.005767,282.763550 
	C19.657600,292.545776 25.309433,302.328003 31.035734,312.822540 
	C38.004265,324.905365 44.972794,336.988220 52.028629,349.784454 
	C55.012798,354.894897 57.996967,360.005341 61.285728,365.735748 
	C66.508720,374.521484 71.731712,383.307251 77.023537,392.801208 
	C80.000870,397.900879 82.978203,403.000549 86.250259,408.730164 
	C90.487175,415.861389 94.724091,422.992645 99.033653,430.828888 
	C100.675598,433.833649 102.357887,436.817169 103.952644,439.846771 
	C111.691986,454.549622 121.029167,467.742340 137.531937,475.139038 
	C140.688904,476.370575 143.845871,477.602142 147.712982,478.970490 
	C152.129135,479.647003 156.538956,480.854767 160.962524,480.907318 
	C179.424423,481.126678 197.890457,480.986267 216.354950,481.003296 
	C226.584961,481.012726 236.814926,481.072601 247.785843,481.332367 
	C250.765137,481.177856 253.744431,481.023376 257.333374,481.055908 
	C264.218597,481.040161 271.103851,481.004303 277.989044,481.013916 
	C285.640381,481.024597 293.291687,481.076782 301.483948,481.748352 
	C311.639160,481.446014 321.794342,481.143646 332.837769,480.972992 
	C335.227295,480.928772 337.616791,480.884552 340.934906,480.955353 
	C349.415924,480.397247 358.177094,480.995361 366.315643,479.023621 
	C380.275604,475.641541 391.859711,467.640350 399.994720,455.587036 
	C405.826691,446.946136 410.904053,437.795959 416.681641,428.742706 
	C416.893372,428.560333 417.003540,428.329285 417.051300,428.055542 
z"/>
<path fill="#F2871A" opacity="1.000000" stroke="none" 
	d="
M504.822174,254.981796 
	C504.378937,263.313690 505.067596,271.874969 501.082092,279.599731 
	C496.845367,287.811554 492.257812,295.842346 487.081360,304.035126 
	C481.379761,306.001984 476.259979,307.549774 471.487213,309.825348 
	C444.180603,322.844452 416.964966,336.054077 389.701202,349.163208 
	C373.532806,356.937408 357.350952,364.684418 341.115997,372.317871 
	C339.647308,373.008423 337.744843,372.776306 336.043793,372.972656 
	C336.223145,371.269012 335.948608,369.342010 336.658447,367.899445 
	C340.182281,360.738556 344.114532,353.777924 347.608887,346.603516 
	C350.239838,341.201843 348.394958,338.493195 342.432281,339.151093 
	C339.589111,339.464783 336.882660,341.017365 334.082886,341.761383 
	C334.051453,341.513947 334.040161,341.015137 334.290802,340.768311 
	C335.831879,338.057007 337.053345,335.553436 338.424042,333.134430 
	C346.382294,319.089600 354.375641,305.064697 362.760345,291.018494 
	C367.688629,290.449249 372.213654,289.894562 377.119965,289.293182 
	C377.466461,298.853577 369.026062,305.133240 369.676331,314.737640 
	C371.545288,314.024353 372.757721,313.653320 373.890198,313.114227 
	C380.487457,309.973877 387.049042,306.758362 393.653961,303.634399 
	C413.003571,294.482452 432.385559,285.398865 451.720764,276.216797 
	C467.018311,268.952209 482.210419,261.461487 497.605042,254.411072 
	C499.521637,253.533310 502.393127,254.740631 504.822174,254.981796 
z"/>
<path fill="#F18014" opacity="1.000000" stroke="none" 
	d="
M334.114288,342.008820 
	C336.882660,341.017365 339.589111,339.464783 342.432281,339.151093 
	C348.394958,338.493195 350.239838,341.201843 347.608887,346.603516 
	C344.114532,353.777924 340.182281,360.738556 336.658447,367.899445 
	C335.948608,369.342010 336.223145,371.269012 336.043793,372.972656 
	C337.744843,372.776306 339.647308,373.008423 341.115997,372.317871 
	C357.350952,364.684418 373.532806,356.937408 389.701202,349.163208 
	C416.964966,336.054077 444.180603,322.844452 471.487213,309.825348 
	C476.259979,307.549774 481.379761,306.001984 486.727753,304.080322 
	C486.488586,304.806152 485.860901,305.569702 485.119934,306.981323 
	C484.992889,308.361328 484.979095,309.093323 484.965332,309.825287 
	C475.987640,325.172699 466.996216,340.512115 458.043335,355.873932 
	C456.158508,359.108002 454.414978,362.424377 452.056885,365.676636 
	C448.075104,361.783386 444.418274,363.935822 441.062103,365.541931 
	C428.181671,371.706024 415.429443,378.137726 402.561035,384.327423 
	C375.622345,397.284882 348.723450,410.331726 321.599213,422.890442 
	C316.737274,425.141571 312.382416,430.018250 306.048523,427.614807 
	C308.230713,421.485077 310.075378,415.608307 312.574341,410.024384 
	C315.689545,403.063416 319.511200,396.419098 322.642120,389.464417 
	C323.375458,387.835449 323.060150,385.306671 322.350403,383.545197 
	C320.892578,379.927155 318.841644,376.548065 317.109070,372.724792 
	C321.370422,364.581421 325.557587,356.783875 329.866150,348.766113 
	C330.039948,348.386627 330.092316,348.227386 330.395691,347.858582 
	C331.802521,345.768982 332.958405,343.888916 334.114288,342.008820 
z"/>
<path fill="#F38F20" opacity="1.000000" stroke="none" 
	d="
M504.888367,254.535446 
	C502.393127,254.740631 499.521637,253.533310 497.605042,254.411072 
	C482.210419,261.461487 467.018311,268.952209 451.720764,276.216797 
	C432.385559,285.398865 413.003571,294.482452 393.653961,303.634399 
	C387.049042,306.758362 380.487457,309.973877 373.890198,313.114227 
	C372.757721,313.653320 371.545288,314.024353 369.676331,314.737640 
	C369.026062,305.133240 377.466461,298.853577 377.119965,289.293182 
	C372.213654,289.894562 367.688629,290.449249 362.878876,290.708801 
	C365.712769,284.747162 369.380310,279.302765 371.789764,273.349274 
	C374.029510,267.815033 374.927979,261.737976 376.385010,255.474274 
	C374.565277,249.377060 372.777405,243.705475 371.333435,237.862091 
	C380.976593,235.059738 389.150818,235.577484 394.379486,245.309814 
	C395.940277,248.214996 398.609406,248.093704 401.339905,246.803192 
	C406.903625,244.173630 412.512573,241.638275 418.051300,238.957504 
	C426.577576,234.830826 434.995636,230.475708 443.576355,226.467468 
	C457.707428,219.866562 471.931854,213.465469 486.116913,206.980133 
	C491.096802,215.514969 496.938446,223.684006 500.768188,232.706985 
	C503.544586,239.248230 503.655212,246.920929 504.888367,254.535446 
z"/>
<path fill="#FAB33F" opacity="1.000000" stroke="none" 
	d="
M407.823456,70.012299 
	C407.883636,70.439781 407.943817,70.867256 407.657257,71.612579 
	C404.262604,72.399750 400.892426,72.184944 398.217133,73.445198 
	C374.004150,84.851280 349.914398,96.518867 325.784485,108.101402 
	C319.833191,110.958076 318.267181,110.507103 314.872498,104.883095 
	C307.503326,92.674660 299.936920,80.577713 292.876221,68.192863 
	C286.313965,56.682301 280.303314,44.857262 274.049805,33.170677 
	C301.310089,33.122116 328.577637,32.684769 355.827484,33.194733 
	C368.776642,33.437069 379.909882,39.388969 390.111023,47.433685 
	C396.527252,52.493591 399.876648,59.524002 404.890167,66.139809 
	C405.577881,66.655792 405.814728,66.823059 406.063873,66.972954 
	C406.063873,66.972954 406.002991,66.990761 406.069122,67.278542 
	C406.697968,68.381645 407.260712,69.196968 407.823456,70.012299 
z"/>
<path fill="#F49828" opacity="1.000000" stroke="none" 
	d="
M486.048035,206.613495 
	C471.931854,213.465469 457.707428,219.866562 443.576355,226.467468 
	C434.995636,230.475708 426.577576,234.830826 418.051300,238.957504 
	C412.512573,241.638275 406.903625,244.173630 401.339905,246.803192 
	C398.609406,248.093704 395.940277,248.214996 394.379486,245.309814 
	C389.150818,235.577484 380.976593,235.059738 371.073120,237.642792 
	C368.682068,234.670334 366.895172,231.745377 365.002197,228.492065 
	C360.341370,220.007690 355.786652,211.851669 351.137146,203.366470 
	C346.940002,195.374908 342.837677,187.712509 339.149536,180.087189 
	C342.333374,180.687912 345.117462,181.785004 347.869843,181.710495 
	C354.805328,181.522705 358.888550,185.703812 362.601105,190.541519 
	C364.518585,193.040131 366.081146,195.813156 367.776978,198.479401 
	C371.291290,204.004623 373.862274,204.916321 379.850372,202.624084 
	C381.867645,201.851852 383.871399,201.021515 385.812347,200.076096 
	C401.053894,192.652115 416.250977,185.136292 431.518677,177.766663 
	C441.240204,173.074097 451.058807,168.582626 460.833893,164.001007 
	C468.050751,175.682877 475.303680,187.342712 482.453156,199.065643 
	C483.835907,201.332886 484.814270,203.846741 486.048035,206.613495 
z"/>
<path fill="#F8AD3A" opacity="1.000000" stroke="none" 
	d="
M273.582458,33.106495 
	C280.303314,44.857262 286.313965,56.682301 292.876221,68.192863 
	C299.936920,80.577713 307.503326,92.674660 314.872498,104.883095 
	C318.267181,110.507103 319.833191,110.958076 325.784485,108.101402 
	C349.914398,96.518867 374.004150,84.851280 398.217133,73.445198 
	C400.892426,72.184944 404.262604,72.399750 407.694397,71.934837 
	C412.374023,79.384705 416.686432,86.820610 420.958466,94.279617 
	C423.141083,98.090477 425.251373,101.942749 427.520264,106.265083 
	C424.557220,108.277412 421.483429,109.832619 418.376953,111.319443 
	C395.259949,122.383621 372.168549,133.502426 348.976349,144.406738 
	C345.920013,145.843735 342.338348,146.163452 338.783875,146.738998 
	C335.768158,141.797104 333.331299,136.839676 330.041687,132.533722 
	C327.839874,129.651688 324.760559,126.921516 321.477753,125.505302 
	C316.542603,123.376274 311.085419,122.457344 305.578949,120.818878 
	C300.877289,112.741035 296.446838,104.868233 291.932312,96.653549 
	C280.330627,75.507431 268.813049,54.703194 257.292358,33.718475 
	C257.289246,33.537994 257.275848,33.177227 257.275848,33.177227 
	C262.555603,33.132256 267.835358,33.087284 273.582458,33.106495 
z"/>
<path fill="#F0790D" opacity="1.000000" stroke="none" 
	d="
M306.001373,427.997711 
	C312.382416,430.018250 316.737274,425.141571 321.599213,422.890442 
	C348.723450,410.331726 375.622345,397.284882 402.561035,384.327423 
	C415.429443,378.137726 428.181671,371.706024 441.062103,365.541931 
	C444.418274,363.935822 448.075104,361.783386 451.766174,365.868927 
	C446.729950,375.496643 441.481873,384.932709 436.124969,394.306549 
	C432.025696,401.479645 427.788818,408.574066 422.931946,415.896973 
	C420.329010,416.571350 418.260712,416.744293 416.507507,417.579041 
	C388.304230,431.007477 360.154022,444.547302 331.957214,457.989319 
	C326.713654,460.489044 321.319275,462.672363 315.720825,464.810303 
	C307.074432,457.304199 304.091187,447.752716 304.078217,436.624390 
	C304.780029,433.494232 305.390686,430.745972 306.001373,427.997711 
z"/>
<path fill="#F39627" opacity="1.000000" stroke="none" 
	d="
M30.961273,312.110229 
	C25.309433,302.328003 19.657600,292.545776 14.304595,282.345917 
	C17.967152,279.848480 21.308567,277.731506 24.698456,275.695221 
	C39.476631,266.818115 54.354931,258.104065 69.032104,249.063339 
	C83.993706,239.847382 98.714691,230.241608 113.633232,220.954636 
	C123.055672,215.089035 132.687027,209.559921 142.146454,203.752487 
	C147.082504,200.722046 151.772644,197.290588 156.713577,194.268707 
	C162.001160,191.034775 167.453018,188.069458 172.819519,185.284134 
	C170.024048,190.719757 167.189285,195.830353 164.472610,201.002945 
	C160.140762,209.250839 155.933929,217.564484 151.588043,225.804871 
	C147.123383,234.270508 142.555359,242.681625 137.901993,250.794189 
	C135.410080,246.494339 132.522629,248.633499 130.086517,250.097427 
	C114.153358,259.672302 98.268509,269.328796 82.434532,279.067047 
	C67.860649,288.030273 53.346111,297.090881 38.864391,306.202301 
	C36.089466,307.948212 33.588593,310.129700 30.961273,312.110229 
z"/>
<path fill="#F6A130" opacity="1.000000" stroke="none" 
	d="
M305.850189,121.023926 
	C311.085419,122.457344 316.542603,123.376274 321.477753,125.505302 
	C324.760559,126.921516 327.839874,129.651688 330.041687,132.533722 
	C333.331299,136.839676 335.768158,141.797104 338.835236,147.095154 
	C342.370819,153.261322 345.496124,158.900650 348.952332,164.329300 
	C351.706268,168.654907 355.308624,169.126984 360.049316,166.800873 
	C382.086395,155.988037 404.177277,145.275284 426.445679,134.951172 
	C431.253113,132.722321 436.873474,132.246902 442.119385,130.963837 
	C443.423767,132.824860 444.889648,134.594391 446.004730,136.562668 
	C451.029602,145.432144 455.955078,154.357925 460.875122,163.632202 
	C451.058807,168.582626 441.240204,173.074097 431.518677,177.766663 
	C416.250977,185.136292 401.053894,192.652115 385.812347,200.076096 
	C383.871399,201.021515 381.867645,201.851852 379.850372,202.624084 
	C373.862274,204.916321 371.291290,204.004623 367.776978,198.479401 
	C366.081146,195.813156 364.518585,193.040131 362.601105,190.541519 
	C358.888550,185.703812 354.805328,181.522705 347.869843,181.710495 
	C345.117462,181.785004 342.333374,180.687912 338.901672,179.876007 
	C336.877045,177.401245 335.514465,175.174713 334.049347,172.605347 
	C328.672394,162.827286 323.397980,153.392044 318.033386,143.616486 
	C314.321350,137.144714 310.699463,131.013260 307.045502,124.541420 
	C306.625671,123.142006 306.237915,122.082970 305.850189,121.023926 
z"/>
<path fill="#FFEAC7" opacity="1.000000" stroke="none" 
	d="
M256.790894,33.109245 
	C257.275848,33.177227 257.289246,33.537994 256.828064,33.734726 
	C253.382874,33.931458 250.398880,33.931458 246.396500,33.931458 
	C247.944839,36.621178 248.727692,37.858154 249.392166,39.155750 
	C253.281540,46.750904 257.143280,54.360229 260.709625,62.143875 
	C246.085464,69.357224 231.737030,76.333290 217.456909,83.446533 
	C208.234131,88.040619 199.115311,92.843224 189.942017,97.536942 
	C186.242035,99.430122 185.502365,102.142860 187.399323,105.798752 
	C189.392899,109.640785 191.383835,113.494530 193.135544,117.449623 
	C197.091629,126.381897 196.487518,127.938164 187.682312,131.883575 
	C183.309631,124.103577 179.201965,116.547539 175.429749,108.897377 
	C182.982025,105.562416 184.061676,103.167435 181.336441,96.017700 
	C180.568436,94.002815 179.589172,92.054268 178.558044,90.156097 
	C169.832703,74.093948 161.188782,57.985329 152.225845,42.056404 
	C150.430328,38.865429 150.421631,36.621315 152.941223,34.206264 
	C155.014526,33.819489 157.087097,33.100323 159.161255,33.095676 
	C191.542694,33.023090 223.924316,33.042824 256.790894,33.109245 
z"/>
<path fill="#F6A130" opacity="1.000000" stroke="none" 
	d="
M175.094299,108.991501 
	C179.201965,116.547539 183.309631,124.103577 187.725006,132.212219 
	C188.903000,134.512070 189.773254,136.259277 190.289368,138.031921 
	C188.698563,138.497375 187.343460,138.741577 186.243179,139.407074 
	C171.583221,148.274033 156.910248,157.121216 142.336685,166.128876 
	C117.709343,181.350571 93.149071,196.680786 68.563591,211.970184 
	C56.989658,219.167862 45.426598,226.382996 33.851204,233.578308 
	C25.535910,238.747101 17.208324,243.896118 8.886223,249.053955 
	C10.530409,236.967621 15.573019,226.266373 22.239550,216.220184 
	C23.322092,214.588852 24.303629,212.890488 25.908283,211.166061 
	C30.306032,208.916977 34.163612,206.785477 37.942013,204.521805 
	C50.346653,197.090057 62.800976,189.736740 75.087784,182.114059 
	C87.773338,174.243973 100.193352,165.945084 112.897034,158.105194 
	C127.883667,148.856400 143.077744,139.944382 158.122955,130.789520 
	C163.197311,127.701836 164.037033,124.239502 161.421661,118.932961 
	C159.952942,115.952965 158.473419,112.978294 157.416718,109.997925 
	C163.604614,110.210114 167.929794,107.701714 171.354523,103.151955 
	C172.786591,105.218987 173.940445,107.105247 175.094299,108.991501 
z"/>
<path fill="#E26D08" opacity="1.000000" stroke="none" 
	d="
M136.840363,474.859314 
	C121.029167,467.742340 111.691986,454.549622 103.952644,439.846771 
	C102.357887,436.817169 100.675598,433.833649 98.965561,430.161072 
	C99.780350,427.647522 100.251328,425.383118 101.622719,424.033997 
	C105.870659,419.855164 110.272331,415.784088 114.956192,412.106567 
	C126.271469,403.222229 137.899643,394.734436 149.157486,385.779755 
	C154.199890,381.768921 158.452515,376.774414 163.428497,372.668579 
	C170.346954,366.959900 179.020752,363.285828 183.528015,354.791626 
	C183.906448,354.078430 185.830231,354.185272 187.043243,353.924988 
	C187.050446,353.938873 187.035690,353.959900 187.148895,354.140228 
	C187.420471,354.556946 187.601089,354.774933 187.973328,355.286743 
	C190.392090,359.448639 192.641479,363.298279 194.886932,367.505188 
	C194.381119,369.074768 193.991837,370.349365 193.361023,371.490417 
	C175.310699,404.141296 157.228149,436.774384 139.187897,469.430786 
	C138.239014,471.148407 137.615387,473.045685 136.840363,474.859314 
z"/>
<path fill="#FFB16B" opacity="1.000000" stroke="none" 
	d="
M247.044922,481.109711 
	C236.814926,481.072601 226.584961,481.012726 216.354950,481.003296 
	C197.890457,480.986267 179.424423,481.126678 160.962524,480.907318 
	C156.538956,480.854767 152.129135,479.647003 147.437897,478.563538 
	C148.779572,475.105316 150.396317,472.054077 152.391693,468.979980 
	C154.471802,468.351593 156.258621,467.916901 157.862320,467.115662 
	C198.755432,446.684631 239.615967,426.188293 280.550293,405.840302 
	C282.405609,404.918030 284.897125,405.275513 287.030396,405.395691 
	C286.534058,406.822327 286.201172,407.945953 285.650269,408.949951 
	C273.540253,431.019623 261.386780,453.065430 249.311539,475.154114 
	C248.302155,477.000519 247.788742,479.118103 247.044922,481.109711 
z"/>
<path fill="#F7A635" opacity="1.000000" stroke="none" 
	d="
M156.998779,110.001221 
	C158.473419,112.978294 159.952942,115.952965 161.421661,118.932961 
	C164.037033,124.239502 163.197311,127.701836 158.122955,130.789520 
	C143.077744,139.944382 127.883667,148.856400 112.897034,158.105194 
	C100.193352,165.945084 87.773338,174.243973 75.087784,182.114059 
	C62.800976,189.736740 50.346653,197.090057 37.942013,204.521805 
	C34.163612,206.785477 30.306032,208.916977 26.215782,211.004852 
	C30.752390,202.022217 35.424809,193.068359 40.397671,184.284592 
	C46.413788,173.658066 52.684185,163.175491 59.403217,152.311691 
	C65.985153,149.061111 72.262733,146.552094 77.979866,143.111740 
	C90.732758,135.437561 103.180107,127.257248 115.802025,119.363228 
	C124.101601,114.172478 132.528290,109.184639 140.816605,103.976334 
	C144.096634,101.915199 147.081024,99.451576 147.270813,95.203438 
	C150.685715,100.279358 153.842255,105.140289 156.998779,110.001221 
z"/>
<path fill="#F28E21" opacity="1.000000" stroke="none" 
	d="
M30.998507,312.466370 
	C33.588593,310.129700 36.089466,307.948212 38.864391,306.202301 
	C53.346111,297.090881 67.860649,288.030273 82.434532,279.067047 
	C98.268509,269.328796 114.153358,259.672302 130.086517,250.097427 
	C132.522629,248.633499 135.410080,246.494339 137.890625,251.247269 
	C136.895584,262.169739 140.284225,270.956635 145.736298,278.998901 
	C137.823730,278.944550 133.939102,285.477997 128.141830,288.537537 
	C123.984413,290.731628 120.289024,293.879181 116.610886,296.875580 
	C114.218826,298.824280 112.306465,301.350067 110.032539,303.459198 
	C108.222275,305.138245 106.312584,306.774780 104.225533,308.074524 
	C101.582283,309.720581 97.834137,310.334473 96.119255,312.581543 
	C92.003601,317.974457 87.109062,321.787750 81.218506,325.187378 
	C73.533936,329.622437 66.615913,335.441711 59.613918,340.976410 
	C56.727200,343.258148 54.479607,346.348480 51.941322,349.071045 
	C44.972794,336.988220 38.004265,324.905365 30.998507,312.466370 
z"/>
<path fill="#EB7E14" opacity="1.000000" stroke="none" 
	d="
M76.954697,392.093018 
	C71.731712,383.307251 66.508720,374.521484 61.265976,365.112122 
	C63.236530,362.514771 65.097664,360.386353 67.241043,358.595825 
	C73.997253,352.951569 80.788284,347.344147 87.695824,341.886993 
	C100.465088,331.799011 113.339485,321.844147 126.144012,311.800598 
	C132.077438,307.146545 138.044113,302.526703 143.811111,297.672089 
	C146.838394,295.123749 149.911255,293.731171 154.026398,295.295227 
	C158.420105,302.748840 162.617889,309.905579 166.533417,317.246429 
	C163.545563,318.998352 160.707718,320.378174 158.160110,322.170563 
	C151.561798,326.812714 144.756668,331.252533 138.695999,336.532867 
	C135.088104,339.676239 130.618576,343.139008 132.014877,349.372650 
	C132.178986,350.105316 130.765671,351.442108 129.812286,352.113739 
	C128.479874,353.052399 126.685791,353.378235 125.446289,354.399597 
	C114.601433,363.335510 103.967300,372.532288 92.988419,381.298126 
	C87.970039,385.304962 82.318871,388.519257 76.954697,392.093018 
z"/>
<path fill="#F49B2B" opacity="1.000000" stroke="none" 
	d="
M172.833191,184.986908 
	C167.453018,188.069458 162.001160,191.034775 156.713577,194.268707 
	C151.772644,197.290588 147.082504,200.722046 142.146454,203.752487 
	C132.687027,209.559921 123.055672,215.089035 113.633232,220.954636 
	C98.714691,230.241608 83.993706,239.847382 69.032104,249.063339 
	C54.354931,258.104065 39.476631,266.818115 24.698456,275.695221 
	C21.308567,277.731506 17.967152,279.848480 14.241781,281.983276 
	C12.269728,276.603241 10.659317,271.168243 9.471357,265.346069 
	C11.134708,264.533295 12.518746,264.332367 13.594110,263.647034 
	C23.115564,257.579071 32.517826,251.322510 42.081577,245.322952 
	C53.904438,237.906158 65.844048,230.675354 77.740273,223.375656 
	C96.736534,211.719345 115.781029,200.140945 134.725037,188.400375 
	C150.408447,178.680588 165.934998,168.706955 181.664322,159.063171 
	C183.104324,158.180267 185.513870,158.878738 187.267883,159.111389 
	C182.319443,167.915573 177.576309,176.451233 172.833191,184.986908 
z"/>
<path fill="#F59D2D" opacity="1.000000" stroke="none" 
	d="
M187.473206,158.842896 
	C185.513870,158.878738 183.104324,158.180267 181.664322,159.063171 
	C165.934998,168.706955 150.408447,178.680588 134.725037,188.400375 
	C115.781029,200.140945 96.736534,211.719345 77.740273,223.375656 
	C65.844048,230.675354 53.904438,237.906158 42.081577,245.322952 
	C32.517826,251.322510 23.115564,257.579071 13.594110,263.647034 
	C12.518746,264.332367 11.134708,264.533295 9.529823,264.983521 
	C9.098663,259.912689 9.031490,254.817215 8.925271,249.387848 
	C17.208324,243.896118 25.535910,238.747101 33.851204,233.578308 
	C45.426598,226.382996 56.989658,219.167862 68.563591,211.970184 
	C93.149071,196.680786 117.709343,181.350571 142.336685,166.128876 
	C156.910248,157.121216 171.583221,148.274033 186.243179,139.407074 
	C187.343460,138.741577 188.698563,138.497375 190.429916,138.368011 
	C192.306030,141.395599 193.687439,144.112503 194.750031,146.985275 
	C192.111893,151.041733 189.792542,154.942307 187.473206,158.842896 
z"/>
<path fill="#EF7409" opacity="1.000000" stroke="none" 
	d="
M315.994537,465.001709 
	C321.319275,462.672363 326.713654,460.489044 331.957214,457.989319 
	C360.154022,444.547302 388.304230,431.007477 416.507507,417.579041 
	C418.260712,416.744293 420.329010,416.571350 422.643372,416.088257 
	C421.351868,419.492004 419.667664,422.897949 417.763245,426.819336 
	C417.361908,427.549774 417.197540,427.776825 417.049866,428.015961 
	C417.049866,428.015961 417.051300,428.055542 416.894440,428.174500 
	C416.560120,428.459412 416.420288,428.652588 416.318054,428.872986 
	C410.904053,437.795959 405.826691,446.946136 399.994720,455.587036 
	C391.859711,467.640350 380.275604,475.641541 366.315643,479.023621 
	C358.177094,480.995361 349.415924,480.397247 340.386444,480.560669 
	C338.322418,479.044556 336.950378,477.594452 335.266205,476.859100 
	C328.272247,473.805298 320.868408,471.483490 315.994537,465.001709 
z"/>
<path fill="#F8AD3A" opacity="1.000000" stroke="none" 
	d="
M147.012451,94.988449 
	C147.081024,99.451576 144.096634,101.915199 140.816605,103.976334 
	C132.528290,109.184639 124.101601,114.172478 115.802025,119.363228 
	C103.180107,127.257248 90.732758,135.437561 77.979866,143.111740 
	C72.262733,146.552094 65.985153,149.061111 59.564644,151.994949 
	C68.170273,136.173782 77.157127,120.341263 86.190910,104.535568 
	C87.805847,101.710037 89.615074,98.995537 91.886459,96.081741 
	C93.537102,94.758842 94.631981,93.580322 95.735306,92.409775 
	C100.264038,87.605186 104.404793,82.343414 109.405617,78.094017 
	C120.390236,68.759987 126.490822,68.986069 138.067749,78.405090 
	C141.125488,84.148720 144.068970,89.568581 147.012451,94.988449 
z"/>
<path fill="#E5720B" opacity="1.000000" stroke="none" 
	d="
M187.036057,353.911102 
	C185.830231,354.185272 183.906448,354.078430 183.528015,354.791626 
	C179.020752,363.285828 170.346954,366.959900 163.428497,372.668579 
	C158.452515,376.774414 154.199890,381.768921 149.157486,385.779755 
	C137.899643,394.734436 126.271469,403.222229 114.956192,412.106567 
	C110.272331,415.784088 105.870659,419.855164 101.622719,424.033997 
	C100.251328,425.383118 99.780350,427.647522 98.929245,429.808533 
	C94.724091,422.992645 90.487175,415.861389 86.201027,408.068848 
	C87.756012,405.372772 89.006218,402.854156 91.020714,401.380066 
	C106.386551,390.136658 121.936760,379.145630 137.350067,367.966400 
	C142.448395,364.268616 147.159805,360.028961 152.320740,356.427765 
	C160.249741,350.895020 169.850891,347.691162 175.782227,339.379272 
	C176.228943,338.753235 177.141052,338.459320 178.000153,338.321594 
	C181.121017,343.725159 184.078537,348.818115 187.036057,353.911102 
z"/>
<path fill="#F7A635" opacity="1.000000" stroke="none" 
	d="
M442.054108,130.604141 
	C436.873474,132.246902 431.253113,132.722321 426.445679,134.951172 
	C404.177277,145.275284 382.086395,155.988037 360.049316,166.800873 
	C355.308624,169.126984 351.706268,168.654907 348.952332,164.329300 
	C345.496124,158.900650 342.370819,153.261322 339.051331,147.356781 
	C342.338348,146.163452 345.920013,145.843735 348.976349,144.406738 
	C372.168549,133.502426 395.259949,122.383621 418.376953,111.319443 
	C421.483429,109.832619 424.557220,108.277412 427.815338,106.467026 
	C430.425110,110.065926 432.971466,113.890160 435.276917,117.854492 
	C437.637085,121.913017 439.761322,126.108772 442.054108,130.604141 
z"/>
<path fill="#E8770F" opacity="1.000000" stroke="none" 
	d="
M177.836823,338.010986 
	C177.141052,338.459320 176.228943,338.753235 175.782227,339.379272 
	C169.850891,347.691162 160.249741,350.895020 152.320740,356.427765 
	C147.159805,360.028961 142.448395,364.268616 137.350067,367.966400 
	C121.936760,379.145630 106.386551,390.136658 91.020714,401.380066 
	C89.006218,402.854156 87.756012,405.372772 86.053665,407.753906 
	C82.978203,403.000549 80.000870,397.900879 76.989113,392.447113 
	C82.318871,388.519257 87.970039,385.304962 92.988419,381.298126 
	C103.967300,372.532288 114.601433,363.335510 125.446289,354.399597 
	C126.685791,353.378235 128.479874,353.052399 129.812286,352.113739 
	C130.765671,351.442108 132.178986,350.105316 132.014877,349.372650 
	C130.618576,343.139008 135.088104,339.676239 138.695999,336.532867 
	C144.756668,331.252533 151.561798,326.812714 158.160110,322.170563 
	C160.707718,320.378174 163.545563,318.998352 166.709106,317.549011 
	C170.723618,324.448639 174.280212,331.229828 177.836823,338.010986 
z"/>
<path fill="#E5720B" opacity="1.000000" stroke="none" 
	d="
M315.720825,464.810303 
	C320.868408,471.483490 328.272247,473.805298 335.266205,476.859100 
	C336.950378,477.594452 338.322418,479.044556 339.922150,480.503174 
	C337.616791,480.884552 335.227295,480.928772 332.013855,480.760620 
	C321.107635,480.735779 311.025299,480.923340 300.942993,481.110901 
	C293.291687,481.076782 285.640381,481.024597 277.989044,481.013916 
	C271.103851,481.004303 264.218597,481.040161 257.181335,480.646454 
	C266.873871,462.749023 276.718414,445.261078 286.904633,427.897034 
	C292.390594,427.873260 296.306915,430.111206 299.588440,433.973267 
	C300.702026,435.283875 302.501190,436.011993 303.987091,437.006287 
	C304.091187,447.752716 307.074432,457.304199 315.720825,464.810303 
z"/>
<path fill="#FFC895" opacity="1.000000" stroke="none" 
	d="
M152.013062,469.002838 
	C150.396317,472.054077 148.779572,475.105316 147.082825,478.495117 
	C143.845871,477.602142 140.688904,476.370575 137.186157,474.999176 
	C137.615387,473.045685 138.239014,471.148407 139.187897,469.430786 
	C157.228149,436.774384 175.310699,404.141296 193.361023,371.490417 
	C193.991837,370.349365 194.381119,369.074768 195.213074,367.331451 
	C203.080093,352.872559 210.617004,338.944641 218.518585,324.993958 
	C220.836365,323.852539 223.303055,323.158539 224.645538,321.534943 
	C228.548050,316.815430 231.834122,311.590118 235.671677,306.811920 
	C240.280640,301.073212 245.208817,295.590912 249.921310,290.332550 
	C249.562317,291.777924 249.280792,292.888367 248.783844,294.258545 
	C246.261383,298.367310 243.818787,302.142487 241.673187,306.079468 
	C235.713135,317.015564 229.876587,328.018921 223.774811,339.256805 
	C217.691833,350.339722 211.825333,361.161591 205.739456,372.237183 
	C200.020264,382.329468 194.520432,392.167969 188.831390,402.291443 
	C182.059479,414.702362 175.476761,426.828278 168.639740,439.173889 
	C162.927994,449.263306 157.470535,459.133087 152.013062,469.002838 
z"/>
<path fill="#F2871A" opacity="1.000000" stroke="none" 
	d="
M153.830460,294.998352 
	C149.911255,293.731171 146.838394,295.123749 143.811111,297.672089 
	C138.044113,302.526703 132.077438,307.146545 126.144012,311.800598 
	C113.339485,321.844147 100.465088,331.799011 87.695824,341.886993 
	C80.788284,347.344147 73.997253,352.951569 67.241043,358.595825 
	C65.097664,360.386353 63.236530,362.514771 61.113682,364.802155 
	C57.996967,360.005341 55.012798,354.894897 51.984978,349.427734 
	C54.479607,346.348480 56.727200,343.258148 59.613918,340.976410 
	C66.615913,335.441711 73.533936,329.622437 81.218506,325.187378 
	C87.109062,321.787750 92.003601,317.974457 96.119255,312.581543 
	C97.834137,310.334473 101.582283,309.720581 104.225533,308.074524 
	C106.312584,306.774780 108.222275,305.138245 110.032539,303.459198 
	C112.306465,301.350067 114.218826,298.824280 116.610886,296.875580 
	C120.289024,293.879181 123.984413,290.731628 128.141830,288.537537 
	C133.939102,285.477997 137.823730,278.944550 146.017731,279.203125 
	C147.250443,280.557159 147.785248,281.710846 148.312210,282.868164 
	C150.153076,286.910889 151.991257,290.954865 153.830460,294.998352 
z"/>
<path fill="#FFBF82" opacity="1.000000" stroke="none" 
	d="
M286.562958,427.773132 
	C276.718414,445.261078 266.873871,462.749023 256.876526,480.552917 
	C253.744431,481.023376 250.765137,481.177856 247.415375,481.221039 
	C247.788742,479.118103 248.302155,477.000519 249.311539,475.154114 
	C261.386780,453.065430 273.540253,431.019623 285.650269,408.949951 
	C286.201172,407.945953 286.534058,406.822327 287.290588,405.189575 
	C293.082672,394.754852 298.552643,384.885010 304.278809,374.796814 
	C306.686279,371.385986 308.837646,368.193451 311.330383,364.909454 
	C315.363159,361.171021 318.946930,357.405304 322.788849,353.924530 
	C324.881256,352.028748 327.411774,350.616608 329.744720,348.986328 
	C325.557587,356.783875 321.370422,364.581421 316.878296,372.971588 
	C306.569885,391.633850 296.566437,409.703491 286.562958,427.773132 
z"/>
<path fill="#F39627" opacity="1.000000" stroke="none" 
	d="
M137.953506,78.081329 
	C126.490822,68.986069 120.390236,68.759987 109.405617,78.094017 
	C104.404793,82.343414 100.264038,87.605186 95.735306,92.409775 
	C94.631981,93.580322 93.537102,94.758842 92.193970,95.918739 
	C97.834099,85.524269 103.835365,75.208786 109.571022,64.747673 
	C115.593407,53.763626 124.060097,45.441048 135.956146,40.094700 
	C141.403824,49.113834 146.227188,58.013557 150.768433,67.112175 
	C146.308716,70.901154 142.131104,74.491241 137.953506,78.081329 
z"/>
<path fill="#FFEDCF" opacity="1.000000" stroke="none" 
	d="
M151.050537,66.913284 
	C146.227188,58.013557 141.403824,49.113834 136.309082,39.988556 
	C141.408279,37.871655 146.778870,35.980309 152.545349,34.147614 
	C150.421631,36.621315 150.430328,38.865429 152.225845,42.056404 
	C161.188782,57.985329 169.832703,74.093948 178.558044,90.156097 
	C179.589172,92.054268 180.568436,94.002815 181.336441,96.017700 
	C184.061676,103.167435 182.982025,105.562416 175.429749,108.897369 
	C173.940445,107.105247 172.786591,105.218987 171.285309,102.887665 
	C170.860611,102.277641 170.783356,102.112679 170.676239,101.737473 
	C170.493759,101.275444 170.281006,101.094353 169.941772,100.637512 
	C163.600494,89.165161 157.325516,78.039223 151.050537,66.913284 
z"/>
<path fill="#EF7409" opacity="1.000000" stroke="none" 
	d="
M301.213470,481.429626 
	C311.025299,480.923340 321.107635,480.735779 331.569763,480.694763 
	C321.794342,481.143646 311.639160,481.446014 301.213470,481.429626 
z"/>
<path fill="#F8AD3A" opacity="1.000000" stroke="none" 
	d="
M407.795654,69.702698 
	C407.260712,69.196968 406.697968,68.381645 406.093109,67.257675 
	C406.623260,67.763718 407.195557,68.578415 407.795654,69.702698 
z"/>
<path fill="#F2871A" opacity="1.000000" stroke="none" 
	d="
M485.277344,309.752075 
	C484.979095,309.093323 484.992889,308.361328 485.019836,307.262817 
	C485.218475,307.823822 485.403961,308.751343 485.277344,309.752075 
z"/>
<path fill="#F8AD3A" opacity="1.000000" stroke="none" 
	d="
M405.972778,66.745193 
	C405.814728,66.823059 405.577881,66.655792 405.189331,66.328041 
	C405.393738,66.082161 405.679169,66.192993 405.972778,66.745193 
z"/>
<path fill="#F0790D" opacity="1.000000" stroke="none" 
	d="
M417.279846,427.941650 
	C417.197540,427.776825 417.361908,427.549774 417.683319,427.177795 
	C417.936035,427.383423 417.831451,427.665588 417.279846,427.941650 
z"/>
<path fill="#F0790D" opacity="1.000000" stroke="none" 
	d="
M416.499847,428.807861 
	C416.420288,428.652588 416.560120,428.459412 416.874878,428.171509 
	C417.003540,428.329285 416.893372,428.560333 416.499847,428.807861 
z"/>
<path fill="#FFC388" opacity="1.000000" stroke="none" 
	d="
M329.866150,348.766113 
	C327.411774,350.616608 324.881256,352.028748 322.788849,353.924530 
	C318.946930,357.405304 315.363159,361.171021 311.425110,364.561584 
	C316.120544,354.869781 321.062653,345.434387 326.223511,335.738861 
	C331.629761,325.986633 336.817200,316.494537 342.221191,306.743591 
	C348.291473,295.008636 357.541138,284.995361 359.131775,269.952637 
	C355.560181,271.396057 353.540497,272.057892 351.660156,272.998444 
	C342.607056,277.526764 333.608276,282.163574 324.559387,286.700409 
	C303.341339,297.338409 282.011475,307.758362 260.912842,318.627502 
	C248.422760,325.061890 236.286591,332.183289 223.991257,338.995728 
	C229.876587,328.018921 235.713135,317.015564 241.673187,306.079468 
	C243.818787,302.142487 246.261383,298.367310 249.125854,294.167236 
	C261.519806,287.805481 273.352631,281.787384 285.193787,275.785797 
	C304.453796,266.024048 323.643188,256.117859 343.029633,246.613693 
	C348.728149,243.819992 354.991516,242.178558 361.150330,240.321014 
	C362.855896,243.735748 364.635956,246.747543 365.912720,249.959396 
	C368.933411,257.558319 368.836731,257.596741 376.416931,255.899918 
	C374.927979,261.737976 374.029510,267.815033 371.789764,273.349274 
	C369.380310,279.302765 365.712769,284.747162 362.475616,290.723358 
	C354.375641,305.064697 346.382294,319.089600 338.424042,333.134430 
	C337.053345,335.553436 335.831879,338.057007 333.965057,340.874084 
	C330.555695,342.676575 328.552948,344.520142 330.144684,348.068115 
	C330.092316,348.227386 330.039948,348.386627 329.866150,348.766113 
z"/>
<path fill="#FFBF82" opacity="1.000000" stroke="none" 
	d="
M330.395691,347.858582 
	C328.552948,344.520142 330.555695,342.676575 333.714417,341.120911 
	C334.040161,341.015137 334.051453,341.513947 334.082886,341.761383 
	C332.958405,343.888916 331.802521,345.768982 330.395691,347.858582 
z"/>
<path fill="#E8770F" opacity="1.000000" stroke="none" 
	d="
M286.904633,427.897034 
	C296.566437,409.703491 306.569885,391.633850 316.804108,373.317413 
	C318.841644,376.548065 320.892578,379.927155 322.350403,383.545197 
	C323.060150,385.306671 323.375458,387.835449 322.642120,389.464417 
	C319.511200,396.419098 315.689545,403.063416 312.574341,410.024384 
	C310.075378,415.608307 308.230713,421.485077 306.048523,427.614807 
	C305.390686,430.745972 304.780029,433.494232 304.078217,436.624390 
	C302.501190,436.011993 300.702026,435.283875 299.588440,433.973267 
	C296.306915,430.111206 292.390594,427.873260 286.904633,427.897034 
z"/>
<path fill="#FFC895" opacity="1.000000" stroke="none" 
	d="
M376.385010,255.474274 
	C368.836731,257.596741 368.933411,257.558319 365.912720,249.959396 
	C364.635956,246.747543 362.855896,243.735748 360.971222,240.038345 
	C359.427002,237.293076 358.216187,235.142456 357.385803,232.973526 
	C360.213593,231.576950 362.660919,230.198685 365.108276,228.820419 
	C366.895172,231.745377 368.682068,234.670334 370.729248,237.814606 
	C372.777405,243.705475 374.565277,249.377060 376.385010,255.474274 
z"/>
<path fill="#FFCE9A" opacity="1.000000" stroke="none" 
	d="
M365.002197,228.492065 
	C362.660919,230.198685 360.213593,231.576950 357.229309,232.667877 
	C353.599640,226.880951 350.603149,221.324265 347.383789,215.899857 
	C344.806122,211.556656 340.804321,210.401230 336.297729,212.645309 
	C314.754456,223.372849 293.257904,234.194336 271.705200,244.902893 
	C267.765900,246.860153 265.480011,249.818314 265.135071,254.154449 
	C264.050720,267.786224 257.115601,278.925476 249.998779,289.997589 
	C245.208817,295.590912 240.280640,301.073212 235.671677,306.811920 
	C231.834122,311.590118 228.548050,316.815430 224.645538,321.534943 
	C223.303055,323.158539 220.836365,323.852539 218.565308,324.654724 
	C219.407364,322.757751 220.748520,321.278656 221.699036,319.580841 
	C230.147049,304.491150 238.709503,289.460388 246.829819,274.194977 
	C249.840393,268.535431 254.088074,263.090515 253.301361,255.636261 
	C254.256805,252.785568 254.690186,250.060898 255.956421,247.803360 
	C258.597870,243.093948 258.216797,238.607986 255.966324,234.011932 
	C254.943954,231.924011 253.890762,229.850891 252.889374,227.753021 
	C249.870667,221.429123 250.374557,219.846298 256.448425,216.781097 
	C275.858673,206.985550 295.246887,197.145508 314.714874,187.465973 
	C318.993896,185.338440 323.566986,183.802353 328.227417,182.246246 
	C332.827179,189.675415 337.126617,196.901443 341.626221,204.000595 
	C343.069092,206.277008 345.041046,208.218063 346.770935,210.312531 
	C348.257935,208.106903 349.744965,205.901276 351.231964,203.695648 
	C355.786652,211.851669 360.341370,220.007690 365.002197,228.492065 
z"/>
<path fill="#FFD8A9" opacity="1.000000" stroke="none" 
	d="
M351.137146,203.366470 
	C349.744965,205.901276 348.257935,208.106903 346.770935,210.312531 
	C345.041046,208.218063 343.069092,206.277008 341.626221,204.000595 
	C337.126617,196.901443 332.827179,189.675415 328.138428,181.906525 
	C327.217346,179.543762 326.607971,177.773041 326.383667,175.991333 
	C329.229797,174.969620 331.690857,173.958908 334.151886,172.948181 
	C335.514465,175.174713 336.877045,177.401245 338.487488,179.838959 
	C342.837677,187.712509 346.940002,195.374908 351.137146,203.366470 
z"/>
<path fill="#FFEDCF" opacity="1.000000" stroke="none" 
	d="
M261.014313,61.964775 
	C257.143280,54.360229 253.281540,46.750904 249.392166,39.155750 
	C248.727692,37.858154 247.944839,36.621178 246.396500,33.931458 
	C250.398880,33.931458 253.382874,33.931458 256.831177,33.915207 
	C268.813049,54.703194 280.330627,75.507431 291.574036,96.705765 
	C288.863037,98.074806 286.426239,99.049759 283.735352,99.800926 
	C280.996826,95.711517 278.512421,91.845894 275.936493,87.634834 
	C270.901428,78.847862 265.957855,70.406319 261.014313,61.964775 
z"/>
<path fill="#FFE5BF" opacity="1.000000" stroke="none" 
	d="
M283.989441,100.024719 
	C286.426239,99.049759 288.863037,98.074806 291.658142,97.047646 
	C296.446838,104.868233 300.877289,112.741035 305.578949,120.818878 
	C306.237915,122.082970 306.625671,123.142006 306.793274,124.764572 
	C304.715485,126.893501 302.857849,128.458908 300.741821,129.806427 
	C296.322662,123.058517 292.161957,116.528496 287.909668,109.652359 
	C286.541901,106.212410 285.265656,103.118561 283.989441,100.024719 
z"/>
<path fill="#4C6971" opacity="1.000000" stroke="none" 
	d="
M253.156464,255.973831 
	C254.088074,263.090515 249.840393,268.535431 246.829819,274.194977 
	C238.709503,289.460388 230.147049,304.491150 221.699036,319.580841 
	C220.748520,321.278656 219.407364,322.757751 218.200653,324.677521 
	C210.617004,338.944641 203.080093,352.872559 195.217026,366.974213 
	C192.641479,363.298279 190.392090,359.448639 187.969467,355.048126 
	C187.627975,354.197540 187.374466,354.018402 187.035690,353.959900 
	C187.035690,353.959900 187.050446,353.938873 187.043243,353.924988 
	C184.078537,348.818115 181.121017,343.725159 178.000153,338.321594 
	C174.280212,331.229828 170.723618,324.448639 166.991333,317.364868 
	C162.617889,309.905579 158.420105,302.748840 154.026398,295.295227 
	C151.991257,290.954865 150.153076,286.910889 148.312210,282.868164 
	C147.785248,281.710846 147.250443,280.557159 146.437790,279.197571 
	C140.284225,270.956635 136.895584,262.169739 138.021179,251.569687 
	C142.555359,242.681625 147.123383,234.270508 151.588043,225.804871 
	C155.933929,217.564484 160.140762,209.250839 164.472610,201.002945 
	C167.189285,195.830353 170.024048,190.719757 172.819504,185.284134 
	C177.576309,176.451233 182.319443,167.915573 187.267883,159.111404 
	C189.792542,154.942307 192.111893,151.041733 195.048325,147.190887 
	C197.747574,150.838394 199.829727,154.436172 201.955139,158.403839 
	C202.322128,159.655533 202.540329,160.595154 202.986618,161.409851 
	C206.024582,166.955688 209.110565,172.475220 212.166626,178.260681 
	C212.425110,178.710800 212.698013,178.903473 213.044556,179.320465 
	C213.301987,179.828842 213.561768,179.991547 214.049377,180.354828 
	C218.430420,188.132446 222.659637,195.588120 226.943848,203.403778 
	C232.314026,213.199982 237.629211,222.636200 242.990753,232.432739 
	C245.984344,238.209076 248.931580,243.625092 251.939926,249.346436 
	C252.318237,250.138885 252.635422,250.626038 252.966705,251.518677 
	C253.039368,253.274063 253.097916,254.623947 253.156464,255.973831 
z"/>
<path fill="#FFDCB1" opacity="1.000000" stroke="none" 
	d="
M334.049347,172.605347 
	C331.690857,173.958908 329.229797,174.969620 326.159302,175.737061 
	C322.033630,169.661896 318.517426,163.830032 314.896637,157.669952 
	C313.530151,154.892410 312.268250,152.443069 311.321991,149.877625 
	C313.799622,147.826614 315.961609,145.891708 318.123566,143.956802 
	C323.397980,153.392044 328.672394,162.827286 334.049347,172.605347 
z"/>
<path fill="#FFE0B7" opacity="1.000000" stroke="none" 
	d="
M318.033386,143.616486 
	C315.961609,145.891708 313.799622,147.826614 311.164429,149.570557 
	C307.793304,144.587082 304.895447,139.794571 301.956909,134.640488 
	C301.610870,132.860718 301.305542,131.442520 301.000214,130.024323 
	C302.857849,128.458908 304.715485,126.893501 306.825378,125.104950 
	C310.699463,131.013260 314.321350,137.144714 318.033386,143.616486 
z"/>
<path fill="#FFE5BF" opacity="1.000000" stroke="none" 
	d="
M201.911880,158.033951 
	C199.829727,154.436172 197.747574,150.838394 195.367126,147.035004 
	C193.687439,144.112503 192.306030,141.395599 190.784058,138.342606 
	C189.773254,136.259277 188.903000,134.512070 187.990021,132.436188 
	C196.487518,127.938164 197.091629,126.381897 193.135544,117.449623 
	C191.383835,113.494530 189.392899,109.640785 187.399323,105.798752 
	C185.502365,102.142860 186.242035,99.430122 189.942017,97.536942 
	C199.115311,92.843224 208.234131,88.040619 217.456909,83.446533 
	C231.737030,76.333290 246.085464,69.357224 260.709625,62.143875 
	C265.957855,70.406319 270.901428,78.847862 275.572174,87.691437 
	C273.928223,88.669868 272.520020,89.171944 271.191437,89.833832 
	C251.248596,99.769188 231.394638,109.887062 211.352722,119.617943 
	C198.838821,125.693771 198.519119,126.015274 204.692566,138.409637 
	C206.393463,141.824509 208.443970,145.163208 209.494858,148.780655 
	C211.035385,154.083633 206.487991,159.276291 201.911880,158.033951 
z"/>
<path fill="#F49B2B" opacity="1.000000" stroke="none" 
	d="
M170.706116,101.947716 
	C170.783356,102.112679 170.860611,102.277641 171.007111,102.706894 
	C167.929794,107.701714 163.604614,110.210114 157.416733,109.997925 
	C153.842255,105.140289 150.685715,100.279358 147.270813,95.203438 
	C144.068970,89.568581 141.125488,84.148720 138.067749,78.405090 
	C142.131104,74.491241 146.308716,70.901154 150.768433,67.112175 
	C157.325516,78.039223 163.600494,89.165161 170.040924,100.810104 
	C170.352615,101.551743 170.519196,101.757942 170.706116,101.947716 
z"/>
<path fill="#E5720B" opacity="1.000000" stroke="none" 
	d="
M187.148895,354.140228 
	C187.374466,354.018402 187.627975,354.197540 187.800095,354.735901 
	C187.601089,354.774933 187.420471,354.556946 187.148895,354.140228 
z"/>
<path fill="#FFB571" opacity="1.000000" stroke="none" 
	d="
M304.022644,375.015167 
	C298.552643,384.885010 293.082672,394.754852 287.352509,404.830841 
	C284.897125,405.275513 282.405609,404.918030 280.550293,405.840302 
	C239.615967,426.188293 198.755432,446.684631 157.862320,467.115662 
	C156.258621,467.916901 154.471802,468.351593 152.391693,468.979980 
	C157.470535,459.133087 162.927994,449.263306 169.000946,439.094971 
	C179.773087,433.849884 189.968979,428.982025 200.079178,423.942291 
	C232.365311,407.848206 264.611115,391.673279 296.905060,375.594940 
	C299.092590,374.505859 301.408295,372.093964 304.022644,375.015167 
z"/>
<path fill="#FFB775" opacity="1.000000" stroke="none" 
	d="
M304.278809,374.796814 
	C301.408295,372.093964 299.092590,374.505859 296.905060,375.594940 
	C264.611115,391.673279 232.365311,407.848206 200.079178,423.942291 
	C189.968979,428.982025 179.773087,433.849884 169.255249,438.875336 
	C175.476761,426.828278 182.059479,414.702362 189.189697,402.237976 
	C195.738098,399.056061 201.794876,396.324188 207.730713,393.350891 
	C244.167984,375.099243 280.560638,356.758392 317.031616,338.574493 
	C319.769958,337.209229 323.002136,336.834320 326.004730,335.999023 
	C321.062653,345.434387 316.120544,354.869781 311.083740,364.653046 
	C308.837646,368.193451 306.686279,371.385986 304.278809,374.796814 
z"/>
<path fill="#FFBF82" opacity="1.000000" stroke="none" 
	d="
M223.774811,339.256805 
	C236.286591,332.183289 248.422760,325.061890 260.912842,318.627502 
	C282.011475,307.758362 303.341339,297.338409 324.559387,286.700409 
	C333.608276,282.163574 342.607056,277.526764 351.660156,272.998444 
	C353.540497,272.057892 355.560181,271.396057 359.131775,269.952637 
	C357.541138,284.995361 348.291473,295.008636 342.014038,306.519897 
	C340.372009,306.427124 338.926971,305.809692 337.972687,306.251740 
	C332.398560,308.833740 326.931854,311.649048 321.442841,314.413330 
	C309.280670,320.538269 297.148529,326.723236 284.963837,332.803009 
	C270.694946,339.922668 256.379059,346.948120 242.091324,354.030121 
	C230.041397,360.002930 218.002579,365.998169 205.958832,371.983459 
	C211.825333,361.161591 217.691833,350.339722 223.774811,339.256805 
z"/>
<path fill="#FFC890" opacity="1.000000" stroke="none" 
	d="
M249.921310,290.332550 
	C257.115601,278.925476 264.050720,267.786224 265.135071,254.154449 
	C265.480011,249.818314 267.765900,246.860153 271.705200,244.902893 
	C293.257904,234.194336 314.754456,223.372849 336.297729,212.645309 
	C340.804321,210.401230 344.806122,211.556656 347.383789,215.899857 
	C350.603149,221.324265 353.599640,226.880951 356.848877,232.686188 
	C358.216187,235.142456 359.427002,237.293076 360.816925,239.726349 
	C354.991516,242.178558 348.728149,243.819992 343.029633,246.613693 
	C323.643188,256.117859 304.453796,266.024048 285.193787,275.785797 
	C273.352631,281.787384 261.519806,287.805481 249.341263,293.907471 
	C249.280792,292.888367 249.562317,291.777924 249.921310,290.332550 
z"/>
<path fill="#FFBB7C" opacity="1.000000" stroke="none" 
	d="
M205.739471,372.237183 
	C218.002579,365.998169 230.041397,360.002930 242.091324,354.030121 
	C256.379059,346.948120 270.694946,339.922668 284.963837,332.803009 
	C297.148529,326.723236 309.280670,320.538269 321.442841,314.413330 
	C326.931854,311.649048 332.398560,308.833740 337.972687,306.251740 
	C338.926971,305.809692 340.372009,306.427124 341.797516,306.778809 
	C336.817200,316.494537 331.629761,325.986633 326.223511,335.738892 
	C323.002136,336.834320 319.769958,337.209229 317.031616,338.574493 
	C280.560638,356.758392 244.167984,375.099243 207.730713,393.350891 
	C201.794876,396.324188 195.738098,399.056061 189.378906,401.953003 
	C194.520432,392.167969 200.020264,382.329468 205.739471,372.237183 
z"/>
<path fill="#F6A130" opacity="1.000000" stroke="none" 
	d="
M170.676239,101.737473 
	C170.519196,101.757942 170.352615,101.551743 170.107239,101.156525 
	C170.281006,101.094353 170.493759,101.275444 170.676239,101.737473 
z"/>
<path fill="#FFD3A2" opacity="1.000000" stroke="none" 
	d="
M315.001221,157.998169 
	C318.517426,163.830032 322.033630,169.661896 325.774231,175.748047 
	C326.607971,177.773041 327.217346,179.543762 327.915680,181.654205 
	C323.566986,183.802353 318.993896,185.338440 314.714874,187.465973 
	C295.246887,197.145508 275.858673,206.985550 256.448425,216.781097 
	C250.374557,219.846298 249.870667,221.429123 252.889374,227.753021 
	C253.890762,229.850891 254.943954,231.924011 255.966324,234.011932 
	C258.216797,238.607986 258.597870,243.093948 255.956421,247.803360 
	C254.690186,250.060898 254.256805,252.785568 253.301361,255.636261 
	C253.097916,254.623947 253.039368,253.274063 252.873505,251.239807 
	C252.470398,250.050674 252.174591,249.545898 251.878799,249.041107 
	C248.931580,243.625092 245.984344,238.209076 243.002228,232.004791 
	C243.233368,229.252319 242.898438,226.899109 243.873016,225.393570 
	C247.435120,219.890869 245.710434,214.911011 243.139160,209.836487 
	C241.785904,207.165802 240.496353,204.462875 239.172119,201.777451 
	C237.183319,197.744415 238.115646,194.911148 242.272446,192.826355 
	C262.192596,182.835693 282.007629,172.634567 301.966187,162.722000 
	C306.078796,160.679459 310.644409,159.549026 315.001221,157.998169 
z"/>
<path fill="#FFE0B7" opacity="1.000000" stroke="none" 
	d="
M201.955139,158.403839 
	C206.487991,159.276291 211.035385,154.083633 209.494858,148.780655 
	C208.443970,145.163208 206.393463,141.824509 204.692566,138.409637 
	C198.519119,126.015274 198.838821,125.693771 211.352722,119.617943 
	C231.394638,109.887062 251.248596,99.769188 271.191437,89.833832 
	C272.520020,89.171944 273.928223,88.669868 275.663696,88.036865 
	C278.512421,91.845894 280.996826,95.711517 283.735321,99.800934 
	C285.265656,103.118561 286.541901,106.212410 287.561584,109.745407 
	C263.501373,121.986748 239.697372,133.788284 215.894348,145.591797 
	C212.134918,147.456039 211.563080,150.220139 213.415939,153.838699 
	C215.989349,158.864426 218.655167,163.860291 220.888870,169.038284 
	C223.965424,176.170120 221.601425,179.689743 213.897583,180.032898 
	C213.561768,179.991547 213.301987,179.828842 212.925995,179.129318 
	C212.563553,178.466080 212.379303,178.229202 212.181046,178.003235 
	C209.110565,172.475220 206.024582,166.955688 202.986618,161.409851 
	C202.540329,160.595154 202.322128,159.655533 201.955139,158.403839 
z"/>
<path fill="#FFDCB1" opacity="1.000000" stroke="none" 
	d="
M214.049377,180.354828 
	C221.601425,179.689743 223.965424,176.170120 220.888870,169.038284 
	C218.655167,163.860291 215.989349,158.864426 213.415939,153.838699 
	C211.563080,150.220139 212.134918,147.456039 215.894348,145.591797 
	C239.697372,133.788284 263.501373,121.986748 287.653137,110.091522 
	C292.161957,116.528496 296.322662,123.058517 300.741821,129.806427 
	C301.305542,131.442520 301.610870,132.860718 301.591034,134.556030 
	C297.455658,135.594955 293.270294,135.591278 289.896973,137.244492 
	C270.030182,146.980820 250.342331,157.083023 230.617264,167.107376 
	C224.627396,170.151474 223.798462,172.528778 226.579025,178.586990 
	C228.454269,182.672745 230.682281,186.601074 232.461533,190.725342 
	C235.103348,196.848999 233.052200,201.164536 226.888870,203.043793 
	C222.659637,195.588120 218.430420,188.132446 214.049377,180.354828 
z"/>
<path fill="#FFD8A9" opacity="1.000000" stroke="none" 
	d="
M226.943848,203.403778 
	C233.052200,201.164536 235.103348,196.848999 232.461533,190.725342 
	C230.682281,186.601074 228.454269,182.672745 226.579025,178.586990 
	C223.798462,172.528778 224.627396,170.151474 230.617264,167.107376 
	C250.342331,157.083023 270.030182,146.980820 289.896973,137.244492 
	C293.270294,135.591278 297.455658,135.594955 301.631714,134.917603 
	C304.895447,139.794571 307.793304,144.587082 310.848755,149.686661 
	C312.268250,152.443069 313.530151,154.892410 314.896637,157.669968 
	C310.644409,159.549026 306.078796,160.679459 301.966187,162.722000 
	C282.007629,172.634567 262.192596,182.835693 242.272446,192.826355 
	C238.115646,194.911148 237.183319,197.744415 239.172119,201.777451 
	C240.496353,204.462875 241.785904,207.165802 243.139160,209.836487 
	C245.710434,214.911011 247.435120,219.890869 243.873016,225.393570 
	C242.898438,226.899109 243.233368,229.252319 242.955872,231.644485 
	C237.629211,222.636200 232.314026,213.199982 226.943848,203.403778 
z"/>
<path fill="#FFCE9A" opacity="1.000000" stroke="none" 
	d="
M251.939926,249.346436 
	C252.174591,249.545898 252.470398,250.050674 252.859406,250.834320 
	C252.635422,250.626038 252.318237,250.138885 251.939926,249.346436 
z"/>
<path fill="#FFDCB1" opacity="1.000000" stroke="none" 
	d="
M212.166626,178.260681 
	C212.379303,178.229202 212.563553,178.466080 212.852356,178.904999 
	C212.698013,178.903473 212.425110,178.710800 212.166626,178.260681 
z"/>
</svg>